<svg xmlns="http://www.w3.org/2000/svg" xmlns:xlink="http://www.w3.org/1999/xlink" width="500" zoomAndPan="magnify" viewBox="0 0 375 374.999991" height="500" preserveAspectRatio="xMidYMid meet" version="1.0"><defs><g/><clipPath id="a3c9f63046"><path d="M 89.765625 63.964844 L 107.546875 63.964844 L 107.546875 81.75 L 89.765625 81.75 Z M 89.765625 63.964844 " clip-rule="nonzero"/></clipPath><clipPath id="eeec54aa8a"><path d="M 98.65625 63.964844 C 93.746094 63.964844 89.765625 67.945312 89.765625 72.855469 C 89.765625 77.765625 93.746094 81.75 98.65625 81.75 C 103.566406 81.75 107.546875 77.765625 107.546875 72.855469 C 107.546875 67.945312 103.566406 63.964844 98.65625 63.964844 Z M 98.65625 63.964844 " clip-rule="nonzero"/></clipPath><clipPath id="f3946f1b2c"><path d="M 89.765625 63.964844 L 107.542969 63.964844 L 107.542969 81.742188 L 89.765625 81.742188 Z M 89.765625 63.964844 " clip-rule="nonzero"/></clipPath><clipPath id="9e8587b098"><path d="M 98.652344 63.964844 C 93.742188 63.964844 89.765625 67.945312 89.765625 72.855469 C 89.765625 77.765625 93.742188 81.742188 98.652344 81.742188 C 103.5625 81.742188 107.542969 77.765625 107.542969 72.855469 C 107.542969 67.945312 103.5625 63.964844 98.652344 63.964844 Z M 98.652344 63.964844 " clip-rule="nonzero"/></clipPath><clipPath id="01281def7b"><path d="M 68.714844 92.167969 L 86.378906 92.167969 L 86.378906 109.832031 L 68.714844 109.832031 Z M 68.714844 92.167969 " clip-rule="nonzero"/></clipPath><clipPath id="2b608ef8e3"><path d="M 77.546875 92.167969 C 72.667969 92.167969 68.714844 96.121094 68.714844 101 C 68.714844 105.875 72.667969 109.832031 77.546875 109.832031 C 82.425781 109.832031 86.378906 105.875 86.378906 101 C 86.378906 96.121094 82.425781 92.167969 77.546875 92.167969 Z M 77.546875 92.167969 " clip-rule="nonzero"/></clipPath><clipPath id="9e850370b2"><path d="M 68.714844 92.167969 L 86.375 92.167969 L 86.375 109.828125 L 68.714844 109.828125 Z M 68.714844 92.167969 " clip-rule="nonzero"/></clipPath><clipPath id="76a0df0d49"><path d="M 77.546875 92.167969 C 72.667969 92.167969 68.714844 96.121094 68.714844 100.996094 C 68.714844 105.871094 72.667969 109.828125 77.546875 109.828125 C 82.421875 109.828125 86.375 105.871094 86.375 100.996094 C 86.375 96.121094 82.421875 92.167969 77.546875 92.167969 Z M 77.546875 92.167969 " clip-rule="nonzero"/></clipPath><clipPath id="b07ae92108"><path d="M 82 139.863281 L 100.25 139.863281 L 100.25 158.113281 L 82 158.113281 Z M 82 139.863281 " clip-rule="nonzero"/></clipPath><clipPath id="4499177221"><path d="M 91.125 139.863281 C 86.085938 139.863281 82 143.949219 82 148.988281 C 82 154.03125 86.085938 158.113281 91.125 158.113281 C 96.164062 158.113281 100.25 154.03125 100.25 148.988281 C 100.25 143.949219 96.164062 139.863281 91.125 139.863281 Z M 91.125 139.863281 " clip-rule="nonzero"/></clipPath><clipPath id="86995e3731"><path d="M 82 139.863281 L 100 139.863281 L 100 157.863281 L 82 157.863281 Z M 82 139.863281 " clip-rule="nonzero"/></clipPath><clipPath id="abc5a085b7"><path d="M 91.125 139.863281 C 86.085938 139.863281 82 143.949219 82 148.988281 C 82 154.027344 86.085938 158.109375 91.125 158.109375 C 96.164062 158.109375 100.246094 154.027344 100.246094 148.988281 C 100.246094 143.949219 96.164062 139.863281 91.125 139.863281 Z M 91.125 139.863281 " clip-rule="nonzero"/></clipPath><clipPath id="d0dab9909a"><path d="M 150.226562 37.5 L 167.914062 37.5 L 167.914062 55.1875 L 150.226562 55.1875 Z M 150.226562 37.5 " clip-rule="nonzero"/></clipPath><clipPath id="8121191d91"><path d="M 159.070312 37.5 C 154.1875 37.5 150.226562 41.460938 150.226562 46.34375 C 150.226562 51.226562 154.1875 55.1875 159.070312 55.1875 C 163.957031 55.1875 167.914062 51.226562 167.914062 46.34375 C 167.914062 41.460938 163.957031 37.5 159.070312 37.5 Z M 159.070312 37.5 " clip-rule="nonzero"/></clipPath><clipPath id="93252e0975"><path d="M 150.226562 37.5 L 167.910156 37.5 L 167.910156 55.183594 L 150.226562 55.183594 Z M 150.226562 37.5 " clip-rule="nonzero"/></clipPath><clipPath id="badb19589e"><path d="M 159.070312 37.5 C 154.1875 37.5 150.226562 41.457031 150.226562 46.339844 C 150.226562 51.226562 154.1875 55.183594 159.070312 55.183594 C 163.953125 55.183594 167.910156 51.226562 167.910156 46.339844 C 167.910156 41.457031 163.953125 37.5 159.070312 37.5 Z M 159.070312 37.5 " clip-rule="nonzero"/></clipPath><clipPath id="3476b75d8b"><path d="M 137.761719 106.636719 L 155.414062 106.636719 L 155.414062 124.289062 L 137.761719 124.289062 Z M 137.761719 106.636719 " clip-rule="nonzero"/></clipPath><clipPath id="7372839604"><path d="M 146.585938 106.636719 C 141.710938 106.636719 137.761719 110.589844 137.761719 115.460938 C 137.761719 120.335938 141.710938 124.289062 146.585938 124.289062 C 151.460938 124.289062 155.414062 120.335938 155.414062 115.460938 C 155.414062 110.589844 151.460938 106.636719 146.585938 106.636719 Z M 146.585938 106.636719 " clip-rule="nonzero"/></clipPath><clipPath id="38558bc188"><path d="M 137.761719 106.636719 L 155.410156 106.636719 L 155.410156 124.285156 L 137.761719 124.285156 Z M 137.761719 106.636719 " clip-rule="nonzero"/></clipPath><clipPath id="f0319f144c"><path d="M 146.585938 106.636719 C 141.710938 106.636719 137.761719 110.585938 137.761719 115.460938 C 137.761719 120.335938 141.710938 124.285156 146.585938 124.285156 C 151.457031 124.285156 155.410156 120.335938 155.410156 115.460938 C 155.410156 110.585938 151.457031 106.636719 146.585938 106.636719 Z M 146.585938 106.636719 " clip-rule="nonzero"/></clipPath><clipPath id="fd17269dc4"><path d="M 113.894531 144.597656 L 132.058594 144.597656 L 132.058594 162.761719 L 113.894531 162.761719 Z M 113.894531 144.597656 " clip-rule="nonzero"/></clipPath><clipPath id="d6d1583142"><path d="M 122.976562 144.597656 C 117.960938 144.597656 113.894531 148.664062 113.894531 153.679688 C 113.894531 158.695312 117.960938 162.761719 122.976562 162.761719 C 127.992188 162.761719 132.058594 158.695312 132.058594 153.679688 C 132.058594 148.664062 127.992188 144.597656 122.976562 144.597656 Z M 122.976562 144.597656 " clip-rule="nonzero"/></clipPath><clipPath id="d221a215c7"><path d="M 113.894531 144.597656 L 131.894531 144.597656 L 131.894531 162.597656 L 113.894531 162.597656 Z M 113.894531 144.597656 " clip-rule="nonzero"/></clipPath><clipPath id="66b3363c77"><path d="M 122.976562 144.597656 C 117.960938 144.597656 113.894531 148.664062 113.894531 153.679688 C 113.894531 158.695312 117.960938 162.761719 122.976562 162.761719 C 127.992188 162.761719 132.058594 158.695312 132.058594 153.679688 C 132.058594 148.664062 127.992188 144.597656 122.976562 144.597656 Z M 122.976562 144.597656 " clip-rule="nonzero"/></clipPath><clipPath id="63140b626c"><path d="M 288.539062 159.519531 L 306.285156 159.519531 L 306.285156 177.261719 L 288.539062 177.261719 Z M 288.539062 159.519531 " clip-rule="nonzero"/></clipPath><clipPath id="5d4c5835dc"><path d="M 297.414062 159.519531 C 292.511719 159.519531 288.539062 163.492188 288.539062 168.390625 C 288.539062 173.292969 292.511719 177.261719 297.414062 177.261719 C 302.3125 177.261719 306.285156 173.292969 306.285156 168.390625 C 306.285156 163.492188 302.3125 159.519531 297.414062 159.519531 Z M 297.414062 159.519531 " clip-rule="nonzero"/></clipPath><clipPath id="37a64dfb10"><path d="M 288.539062 159.519531 L 306.28125 159.519531 L 306.28125 177.261719 L 288.539062 177.261719 Z M 288.539062 159.519531 " clip-rule="nonzero"/></clipPath><clipPath id="ae63c354d6"><path d="M 297.410156 159.519531 C 292.511719 159.519531 288.539062 163.492188 288.539062 168.390625 C 288.539062 173.289062 292.511719 177.261719 297.410156 177.261719 C 302.3125 177.261719 306.28125 173.289062 306.28125 168.390625 C 306.28125 163.492188 302.3125 159.519531 297.410156 159.519531 Z M 297.410156 159.519531 " clip-rule="nonzero"/></clipPath><clipPath id="c0c561ba99"><path d="M 283.792969 110.726562 L 301.441406 110.726562 L 301.441406 128.371094 L 283.792969 128.371094 Z M 283.792969 110.726562 " clip-rule="nonzero"/></clipPath><clipPath id="3aa645df08"><path d="M 292.617188 110.726562 C 287.746094 110.726562 283.792969 114.675781 283.792969 119.550781 C 283.792969 124.421875 287.746094 128.371094 292.617188 128.371094 C 297.492188 128.371094 301.441406 124.421875 301.441406 119.550781 C 301.441406 114.675781 297.492188 110.726562 292.617188 110.726562 Z M 292.617188 110.726562 " clip-rule="nonzero"/></clipPath><clipPath id="81e86cb03d"><path d="M 283.792969 110.726562 L 301.429688 110.726562 L 301.429688 128.363281 L 283.792969 128.363281 Z M 283.792969 110.726562 " clip-rule="nonzero"/></clipPath><clipPath id="b27146fa48"><path d="M 292.613281 110.726562 C 287.742188 110.726562 283.792969 114.671875 283.792969 119.542969 C 283.792969 124.414062 287.742188 128.363281 292.613281 128.363281 C 297.484375 128.363281 301.429688 124.414062 301.429688 119.542969 C 301.429688 114.671875 297.484375 110.726562 292.613281 110.726562 Z M 292.613281 110.726562 " clip-rule="nonzero"/></clipPath><clipPath id="ff19e4546b"><path d="M 255.96875 103.839844 L 274.316406 103.839844 L 274.316406 122.1875 L 255.96875 122.1875 Z M 255.96875 103.839844 " clip-rule="nonzero"/></clipPath><clipPath id="cc04b1229a"><path d="M 265.144531 103.839844 C 260.074219 103.839844 255.96875 107.945312 255.96875 113.011719 C 255.96875 118.082031 260.074219 122.1875 265.144531 122.1875 C 270.210938 122.1875 274.316406 118.082031 274.316406 113.011719 C 274.316406 107.945312 270.210938 103.839844 265.144531 103.839844 Z M 265.144531 103.839844 " clip-rule="nonzero"/></clipPath><clipPath id="af054a091b"><path d="M 255.96875 103.839844 L 273.96875 103.839844 L 273.96875 121.839844 L 255.96875 121.839844 Z M 255.96875 103.839844 " clip-rule="nonzero"/></clipPath><clipPath id="cb039a9cad"><path d="M 265.136719 103.839844 C 260.074219 103.839844 255.96875 107.945312 255.96875 113.007812 C 255.96875 118.074219 260.074219 122.179688 265.136719 122.179688 C 270.203125 122.179688 274.308594 118.074219 274.308594 113.007812 C 274.308594 107.945312 270.203125 103.839844 265.136719 103.839844 Z M 265.136719 103.839844 " clip-rule="nonzero"/></clipPath><clipPath id="f82bb15083"><path d="M 263.621094 197.296875 L 281.476562 197.296875 L 281.476562 215.152344 L 263.621094 215.152344 Z M 263.621094 197.296875 " clip-rule="nonzero"/></clipPath><clipPath id="8b1a395c8f"><path d="M 272.550781 197.296875 C 267.617188 197.296875 263.621094 201.296875 263.621094 206.226562 C 263.621094 211.15625 267.617188 215.152344 272.550781 215.152344 C 277.480469 215.152344 281.476562 211.15625 281.476562 206.226562 C 281.476562 201.296875 277.480469 197.296875 272.550781 197.296875 Z M 272.550781 197.296875 " clip-rule="nonzero"/></clipPath><clipPath id="8807877b2c"><path d="M 263.621094 197.296875 L 281.46875 197.296875 L 281.46875 215.144531 L 263.621094 215.144531 Z M 263.621094 197.296875 " clip-rule="nonzero"/></clipPath><clipPath id="2699c21f94"><path d="M 272.546875 197.296875 C 267.617188 197.296875 263.621094 201.292969 263.621094 206.222656 C 263.621094 211.148438 267.617188 215.144531 272.546875 215.144531 C 277.472656 215.144531 281.46875 211.148438 281.46875 206.222656 C 281.46875 201.292969 277.472656 197.296875 272.546875 197.296875 Z M 272.546875 197.296875 " clip-rule="nonzero"/></clipPath><clipPath id="b115a6945f"><path d="M 253.824219 67.160156 L 271.871094 67.160156 L 271.871094 85.207031 L 253.824219 85.207031 Z M 253.824219 67.160156 " clip-rule="nonzero"/></clipPath><clipPath id="2953a0e4d4"><path d="M 262.847656 67.160156 C 257.863281 67.160156 253.824219 71.203125 253.824219 76.183594 C 253.824219 81.167969 257.863281 85.207031 262.847656 85.207031 C 267.832031 85.207031 271.871094 81.167969 271.871094 76.183594 C 271.871094 71.203125 267.832031 67.160156 262.847656 67.160156 Z M 262.847656 67.160156 " clip-rule="nonzero"/></clipPath><clipPath id="977bd0d57b"><path d="M 253.824219 67.160156 L 271.824219 67.160156 L 271.824219 85.160156 L 253.824219 85.160156 Z M 253.824219 67.160156 " clip-rule="nonzero"/></clipPath><clipPath id="f862da78fd"><path d="M 262.839844 67.160156 C 257.859375 67.160156 253.824219 71.199219 253.824219 76.179688 C 253.824219 81.160156 257.859375 85.195312 262.839844 85.195312 C 267.820312 85.195312 271.859375 81.160156 271.859375 76.179688 C 271.859375 71.199219 267.820312 67.160156 262.839844 67.160156 Z M 262.839844 67.160156 " clip-rule="nonzero"/></clipPath><clipPath id="c2e857011c"><path d="M 225.800781 209.410156 L 243.894531 209.410156 L 243.894531 227.503906 L 225.800781 227.503906 Z M 225.800781 209.410156 " clip-rule="nonzero"/></clipPath><clipPath id="4c873796a0"><path d="M 234.847656 209.410156 C 229.847656 209.410156 225.800781 213.460938 225.800781 218.457031 C 225.800781 223.453125 229.847656 227.503906 234.847656 227.503906 C 239.84375 227.503906 243.894531 223.453125 243.894531 218.457031 C 243.894531 213.460938 239.84375 209.410156 234.847656 209.410156 Z M 234.847656 209.410156 " clip-rule="nonzero"/></clipPath><clipPath id="539438c207"><path d="M 225.800781 209.410156 L 243.800781 209.410156 L 243.800781 227.410156 L 225.800781 227.410156 Z M 225.800781 209.410156 " clip-rule="nonzero"/></clipPath><clipPath id="fc322eeeac"><path d="M 234.839844 209.410156 C 229.847656 209.410156 225.800781 213.457031 225.800781 218.449219 C 225.800781 223.445312 229.847656 227.492188 234.839844 227.492188 C 239.832031 227.492188 243.882812 223.445312 243.882812 218.449219 C 243.882812 213.457031 239.832031 209.410156 234.839844 209.410156 Z M 234.839844 209.410156 " clip-rule="nonzero"/></clipPath><clipPath id="17c601274a"><path d="M 196.84375 135.308594 L 214.824219 135.308594 L 214.824219 153.289062 L 196.84375 153.289062 Z M 196.84375 135.308594 " clip-rule="nonzero"/></clipPath><clipPath id="8953dfee97"><path d="M 205.832031 135.308594 C 200.871094 135.308594 196.84375 139.335938 196.84375 144.300781 C 196.84375 149.261719 200.871094 153.289062 205.832031 153.289062 C 210.796875 153.289062 214.824219 149.261719 214.824219 144.300781 C 214.824219 139.335938 210.796875 135.308594 205.832031 135.308594 Z M 205.832031 135.308594 " clip-rule="nonzero"/></clipPath><clipPath id="8950a5ec06"><path d="M 196.84375 135.308594 L 214.820312 135.308594 L 214.820312 153.285156 L 196.84375 153.285156 Z M 196.84375 135.308594 " clip-rule="nonzero"/></clipPath><clipPath id="b2fd568301"><path d="M 205.832031 135.308594 C 200.867188 135.308594 196.84375 139.335938 196.84375 144.296875 C 196.84375 149.261719 200.867188 153.285156 205.832031 153.285156 C 210.796875 153.285156 214.820312 149.261719 214.820312 144.296875 C 214.820312 139.335938 210.796875 135.308594 205.832031 135.308594 Z M 205.832031 135.308594 " clip-rule="nonzero"/></clipPath><clipPath id="dbd227d175"><path d="M 171.644531 75.851562 L 189.726562 75.851562 L 189.726562 93.933594 L 171.644531 93.933594 Z M 171.644531 75.851562 " clip-rule="nonzero"/></clipPath><clipPath id="7af6d5c46e"><path d="M 180.683594 75.851562 C 175.691406 75.851562 171.644531 79.898438 171.644531 84.890625 C 171.644531 89.882812 175.691406 93.933594 180.683594 93.933594 C 185.679688 93.933594 189.726562 89.882812 189.726562 84.890625 C 189.726562 79.898438 185.679688 75.851562 180.683594 75.851562 Z M 180.683594 75.851562 " clip-rule="nonzero"/></clipPath><clipPath id="5e88ff7992"><path d="M 171.644531 75.851562 L 189.644531 75.851562 L 189.644531 93.851562 L 171.644531 93.851562 Z M 171.644531 75.851562 " clip-rule="nonzero"/></clipPath><clipPath id="0aef851bc1"><path d="M 180.679688 75.851562 C 175.6875 75.851562 171.644531 79.894531 171.644531 84.886719 C 171.644531 89.875 175.6875 93.921875 180.679688 93.921875 C 185.667969 93.921875 189.714844 89.875 189.714844 84.886719 C 189.714844 79.894531 185.667969 75.851562 180.679688 75.851562 Z M 180.679688 75.851562 " clip-rule="nonzero"/></clipPath><clipPath id="d196b90c26"><path d="M 167.035156 124.289062 L 185.113281 124.289062 L 185.113281 142.367188 L 167.035156 142.367188 Z M 167.035156 124.289062 " clip-rule="nonzero"/></clipPath><clipPath id="e819030069"><path d="M 176.074219 124.289062 C 171.082031 124.289062 167.035156 128.335938 167.035156 133.328125 C 167.035156 138.320312 171.082031 142.367188 176.074219 142.367188 C 181.066406 142.367188 185.113281 138.320312 185.113281 133.328125 C 185.113281 128.335938 181.066406 124.289062 176.074219 124.289062 Z M 176.074219 124.289062 " clip-rule="nonzero"/></clipPath><clipPath id="9d3319343c"><path d="M 167.035156 124.289062 L 185.035156 124.289062 L 185.035156 142.289062 L 167.035156 142.289062 Z M 167.035156 124.289062 " clip-rule="nonzero"/></clipPath><clipPath id="3926d8d765"><path d="M 176.070312 124.289062 C 171.078125 124.289062 167.035156 128.335938 167.035156 133.324219 C 167.035156 138.3125 171.078125 142.359375 176.070312 142.359375 C 181.058594 142.359375 185.105469 138.3125 185.105469 133.324219 C 185.105469 128.335938 181.058594 124.289062 176.070312 124.289062 Z M 176.070312 124.289062 " clip-rule="nonzero"/></clipPath><clipPath id="420f7c7252"><path d="M 134.945312 176.367188 L 153.046875 176.367188 L 153.046875 194.472656 L 134.945312 194.472656 Z M 134.945312 176.367188 " clip-rule="nonzero"/></clipPath><clipPath id="382a56e254"><path d="M 143.996094 176.367188 C 139 176.367188 134.945312 180.421875 134.945312 185.421875 C 134.945312 190.417969 139 194.472656 143.996094 194.472656 C 148.996094 194.472656 153.046875 190.417969 153.046875 185.421875 C 153.046875 180.421875 148.996094 176.367188 143.996094 176.367188 Z M 143.996094 176.367188 " clip-rule="nonzero"/></clipPath><clipPath id="4f374a449e"><path d="M 134.945312 176.367188 L 152.945312 176.367188 L 152.945312 194.367188 L 134.945312 194.367188 Z M 134.945312 176.367188 " clip-rule="nonzero"/></clipPath><clipPath id="f6bbe9f9fa"><path d="M 143.992188 176.367188 C 138.996094 176.367188 134.945312 180.417969 134.945312 185.414062 C 134.945312 190.414062 138.996094 194.460938 143.992188 194.460938 C 148.988281 194.460938 153.039062 190.414062 153.039062 185.414062 C 153.039062 180.417969 148.988281 176.367188 143.992188 176.367188 Z M 143.992188 176.367188 " clip-rule="nonzero"/></clipPath><clipPath id="a4ba1a2d46"><path d="M 169.191406 168.886719 L 187.359375 168.886719 L 187.359375 187.058594 L 169.191406 187.058594 Z M 169.191406 168.886719 " clip-rule="nonzero"/></clipPath><clipPath id="2ee4a0a5e7"><path d="M 178.277344 168.886719 C 173.257812 168.886719 169.191406 172.957031 169.191406 177.972656 C 169.191406 182.988281 173.257812 187.058594 178.277344 187.058594 C 183.292969 187.058594 187.359375 182.988281 187.359375 177.972656 C 187.359375 172.957031 183.292969 168.886719 178.277344 168.886719 Z M 178.277344 168.886719 " clip-rule="nonzero"/></clipPath><clipPath id="4a3ffb1bf6"><path d="M 169.191406 168.886719 L 187.191406 168.886719 L 187.191406 186.886719 L 169.191406 186.886719 Z M 169.191406 168.886719 " clip-rule="nonzero"/></clipPath><clipPath id="599cef40b0"><path d="M 178.273438 168.886719 C 173.257812 168.886719 169.191406 172.953125 169.191406 177.96875 C 169.191406 182.988281 173.257812 187.050781 178.273438 187.050781 C 183.289062 187.050781 187.355469 182.988281 187.355469 177.96875 C 187.355469 172.953125 183.289062 168.886719 178.273438 168.886719 Z M 178.273438 168.886719 " clip-rule="nonzero"/></clipPath><clipPath id="f71f4e20bb"><path d="M 233.296875 159.5625 L 251.550781 159.5625 L 251.550781 177.816406 L 233.296875 177.816406 Z M 233.296875 159.5625 " clip-rule="nonzero"/></clipPath><clipPath id="3a2995dbcb"><path d="M 242.425781 159.5625 C 237.386719 159.5625 233.296875 163.648438 233.296875 168.6875 C 233.296875 173.730469 237.386719 177.816406 242.425781 177.816406 C 247.464844 177.816406 251.550781 173.730469 251.550781 168.6875 C 251.550781 163.648438 247.464844 159.5625 242.425781 159.5625 Z M 242.425781 159.5625 " clip-rule="nonzero"/></clipPath><clipPath id="834196fb5c"><path d="M 233.296875 159.5625 L 251.296875 159.5625 L 251.296875 177.5625 L 233.296875 177.5625 Z M 233.296875 159.5625 " clip-rule="nonzero"/></clipPath><clipPath id="0c28d74339"><path d="M 242.421875 159.5625 C 237.382812 159.5625 233.296875 163.648438 233.296875 168.683594 C 233.296875 173.722656 237.382812 177.808594 242.421875 177.808594 C 247.460938 177.808594 251.542969 173.722656 251.542969 168.683594 C 251.542969 163.648438 247.460938 159.5625 242.421875 159.5625 Z M 242.421875 159.5625 " clip-rule="nonzero"/></clipPath><clipPath id="1b6b4550d4"><path d="M 202.410156 183.96875 L 220.796875 183.96875 L 220.796875 202.355469 L 202.410156 202.355469 Z M 202.410156 183.96875 " clip-rule="nonzero"/></clipPath><clipPath id="4789fb2335"><path d="M 211.605469 183.96875 C 206.527344 183.96875 202.410156 188.085938 202.410156 193.160156 C 202.410156 198.238281 206.527344 202.355469 211.605469 202.355469 C 216.679688 202.355469 220.796875 198.238281 220.796875 193.160156 C 220.796875 188.085938 216.679688 183.96875 211.605469 183.96875 Z M 211.605469 183.96875 " clip-rule="nonzero"/></clipPath><clipPath id="01182b7463"><path d="M 202.410156 183.96875 L 220.785156 183.96875 L 220.785156 202.34375 L 202.410156 202.34375 Z M 202.410156 183.96875 " clip-rule="nonzero"/></clipPath><clipPath id="f8c513410d"><path d="M 211.597656 183.96875 C 206.523438 183.96875 202.410156 188.082031 202.410156 193.15625 C 202.410156 198.230469 206.523438 202.34375 211.597656 202.34375 C 216.671875 202.34375 220.785156 198.230469 220.785156 193.15625 C 220.785156 188.082031 216.671875 183.96875 211.597656 183.96875 Z M 211.597656 183.96875 " clip-rule="nonzero"/></clipPath></defs><path stroke-linecap="round" transform="matrix(0.560556, 0.498273, -0.498273, 0.560556, 107.541729, 76.243646)" fill="none" stroke-linejoin="miter" d="M 4.497812 4.500932 L 57.382651 4.501744 " stroke="#000000" stroke-width="9" stroke-opacity="1" stroke-miterlimit="4"/><path stroke-linecap="round" transform="matrix(0.489798, 0.567977, -0.567977, 0.489798, 85.870312, 105.485091)" fill="none" stroke-linejoin="miter" d="M 4.501917 4.49985 L 64.363698 4.49963 " stroke="#000000" stroke-width="9" stroke-opacity="1" stroke-miterlimit="4"/><path stroke-linecap="round" transform="matrix(0.371403, 0.651583, -0.651583, 0.371403, 185.704269, 184.200223)" fill="none" stroke-linejoin="miter" d="M 4.502416 4.498534 L 81.105544 4.50068 " stroke="#000000" stroke-width="9" stroke-opacity="1" stroke-miterlimit="4"/><path stroke-linecap="round" transform="matrix(0.71159, 0.236939, -0.236939, 0.71159, 190.331433, 84.546645)" fill="none" stroke-linejoin="miter" d="M 4.502341 4.501163 L 89.895379 4.497667 " stroke="#000000" stroke-width="9" stroke-opacity="1" stroke-miterlimit="4"/><path stroke-linecap="round" transform="matrix(0.720792, 0.207264, -0.207264, 0.720792, 168.505393, 45.545709)" fill="none" stroke-linejoin="miter" d="M 4.500432 4.500837 L 115.64604 4.498944 " stroke="#000000" stroke-width="9" stroke-opacity="1" stroke-miterlimit="4"/><path stroke-linecap="round" transform="matrix(0.424487, 0.618313, -0.618313, 0.424487, 270.735865, 81.716479)" fill="none" stroke-linejoin="miter" d="M 4.500911 4.501215 L 41.83254 4.499794 " stroke="#000000" stroke-width="9" stroke-opacity="1" stroke-miterlimit="4"/><path stroke-linecap="round" transform="matrix(0.450023, -0.599982, 0.599982, 0.450023, 80.146348, 91.905697)" fill="none" stroke-linejoin="miter" d="M 4.500216 4.499371 L 18.771051 4.498814 " stroke="#000000" stroke-width="9" stroke-opacity="1" stroke-miterlimit="4"/><path stroke-linecap="round" transform="matrix(0.686779, -0.301387, 0.301387, 0.686779, 105.442219, 66.192065)" fill="none" stroke-linejoin="miter" d="M 4.502318 4.500218 L 59.816551 4.498935 " stroke="#000000" stroke-width="9" stroke-opacity="1" stroke-miterlimit="4"/><path stroke-linecap="round" transform="matrix(0.204196, 0.721667, -0.721667, 0.204196, 83.198795, 108.581945)" fill="none" stroke-linejoin="miter" d="M 4.502476 4.499426 L 38.051472 4.498055 " stroke="#000000" stroke-width="9" stroke-opacity="1" stroke-miterlimit="4"/><path stroke-linecap="round" transform="matrix(0.741999, 0.109257, -0.109257, 0.741999, 100.646907, 146.980478)" fill="none" stroke-linejoin="miter" d="M 4.502702 4.501448 L 14.14668 4.497553 " stroke="#000000" stroke-width="9" stroke-opacity="1" stroke-miterlimit="4"/><path stroke-linecap="round" transform="matrix(0.0369453, 0.749089, -0.749089, 0.0369453, 179.886101, 142.195011)" fill="none" stroke-linejoin="miter" d="M 4.497622 4.502238 L 30.930754 4.502261 " stroke="#000000" stroke-width="9" stroke-opacity="1" stroke-miterlimit="4"/><path stroke-linecap="round" transform="matrix(0.414112, 0.625309, -0.625309, 0.414112, 130.805972, 159.389462)" fill="none" stroke-linejoin="miter" d="M 4.499413 4.499802 L 22.079443 4.497972 " stroke="#000000" stroke-width="9" stroke-opacity="1" stroke-miterlimit="4"/><path stroke-linecap="round" transform="matrix(0.394175, -0.638064, 0.638064, 0.394175, 124.877163, 144.173604)" fill="none" stroke-linejoin="miter" d="M 4.502973 4.500041 L 31.514508 4.501883 " stroke="#000000" stroke-width="9" stroke-opacity="1" stroke-miterlimit="4"/><path stroke-linecap="round" transform="matrix(0.481391, -0.575119, 0.575119, 0.481391, 209.014107, 135.236125)" fill="none" stroke-linejoin="miter" d="M 4.502854 4.499569 L 89.918326 4.497681 " stroke="#000000" stroke-width="9" stroke-opacity="1" stroke-miterlimit="4"/><path stroke-linecap="round" transform="matrix(0.732902, -0.159231, 0.159231, 0.732902, 152.127724, 180.199618)" fill="none" stroke-linejoin="miter" d="M 4.497758 4.499664 L 18.08374 4.498631 " stroke="#000000" stroke-width="9" stroke-opacity="1" stroke-miterlimit="4"/><path stroke-linecap="round" transform="matrix(0.682469, 0.311025, -0.311025, 0.682469, 187.943399, 178.671199)" fill="none" stroke-linejoin="miter" d="M 4.497324 4.499322 L 19.961923 4.497445 " stroke="#000000" stroke-width="9" stroke-opacity="1" stroke-miterlimit="4"/><path stroke-linecap="round" transform="matrix(0.507453, 0.55226, -0.55226, 0.507453, 220.306308, 197.65071)" fill="none" stroke-linejoin="miter" d="M 4.499292 4.497911 L 16.980687 4.500969 " stroke="#000000" stroke-width="9" stroke-opacity="1" stroke-miterlimit="4"/><path stroke-linecap="round" transform="matrix(0.535916, -0.524684, 0.524684, 0.535916, 246.58578, 159.891669)" fill="none" stroke-linejoin="miter" d="M 4.501603 4.500062 L 65.224138 4.501513 " stroke="#000000" stroke-width="9" stroke-opacity="1" stroke-miterlimit="4"/><path stroke-linecap="round" transform="matrix(0.0594051, 0.747644, -0.747644, 0.0594051, 269.232174, 121.894914)" fill="none" stroke-linejoin="miter" d="M 4.501115 4.497925 L 96.033489 4.497914 " stroke="#000000" stroke-width="9" stroke-opacity="1" stroke-miterlimit="4"/><path stroke-linecap="round" transform="matrix(0.713402, -0.231426, 0.231426, 0.713402, 242.41219, 212.453482)" fill="none" stroke-linejoin="miter" d="M 4.500714 4.498439 L 24.37597 4.501232 " stroke="#000000" stroke-width="9" stroke-opacity="1" stroke-miterlimit="4"/><path stroke-linecap="round" transform="matrix(-0.411899, 0.626769, -0.626769, -0.411899, 295.358246, 177.66116)" fill="none" stroke-linejoin="miter" d="M 4.501399 4.500114 L 32.128681 4.498942 " stroke="#000000" stroke-width="9" stroke-opacity="1" stroke-miterlimit="4"/><path stroke-linecap="round" transform="matrix(0.0732779, 0.746412, -0.746412, 0.0732779, 296.83481, 128.005655)" fill="none" stroke-linejoin="miter" d="M 4.501267 4.501492 L 37.34066 4.501695 " stroke="#000000" stroke-width="9" stroke-opacity="1" stroke-miterlimit="4"/><path stroke-linecap="round" transform="matrix(0.222276, 0.716305, -0.716305, 0.222276, 217.548989, 200.946726)" fill="none" stroke-linejoin="miter" d="M 4.501305 4.502691 L 47.104062 4.498383 " stroke="#000000" stroke-width="9" stroke-opacity="1" stroke-miterlimit="4"/><path stroke-linecap="round" transform="matrix(0.742984, -0.102349, 0.102349, 0.742984, 209.139893, 235.564144)" fill="none" stroke-linejoin="miter" d="M 4.502189 4.498028 L 20.206062 4.500449 " stroke="#000000" stroke-width="9" stroke-opacity="1" stroke-miterlimit="4"/><g clip-path="url(#a3c9f63046)"><g clip-path="url(#eeec54aa8a)"><path fill="#8f33c4" d="M 89.765625 63.964844 L 107.546875 63.964844 L 107.546875 81.75 L 89.765625 81.75 Z M 89.765625 63.964844 " fill-opacity="1" fill-rule="nonzero"/></g></g><g clip-path="url(#f3946f1b2c)"><g clip-path="url(#9e8587b098)"><path stroke-linecap="butt" transform="matrix(0.75, 0, 0, 0.75, 89.763786, 63.965972)" fill="none" stroke-linejoin="miter" d="M 11.851411 -0.00150407 C 5.304536 -0.00150407 0.00245226 5.305788 0.00245226 11.852663 C 0.00245226 18.399539 5.304536 23.701622 11.851411 23.701622 C 18.398287 23.701622 23.705579 18.399539 23.705579 11.852663 C 23.705579 5.305788 18.398287 -0.00150407 11.851411 -0.00150407 Z M 11.851411 -0.00150407 " stroke="#000000" stroke-width="4" stroke-opacity="1" stroke-miterlimit="4"/></g></g><g clip-path="url(#01281def7b)"><g clip-path="url(#2b608ef8e3)"><path fill="#8f33c4" d="M 68.714844 92.167969 L 86.378906 92.167969 L 86.378906 109.832031 L 68.714844 109.832031 Z M 68.714844 92.167969 " fill-opacity="1" fill-rule="nonzero"/></g></g><g clip-path="url(#9e850370b2)"><g clip-path="url(#76a0df0d49)"><path stroke-linecap="butt" transform="matrix(0.75, 0, 0, 0.75, 68.71489, 92.166234)" fill="none" stroke-linejoin="miter" d="M 11.775981 0.00231307 C 5.270773 0.00231307 -0.000061117 5.273147 -0.000061117 11.773147 C -0.000061117 18.273148 5.270773 23.54919 11.775981 23.54919 C 18.275982 23.54919 23.546815 18.273148 23.546815 11.773147 C 23.546815 5.273147 18.275982 0.00231307 11.775981 0.00231307 Z M 11.775981 0.00231307 " stroke="#000000" stroke-width="4" stroke-opacity="1" stroke-miterlimit="4"/></g></g><g clip-path="url(#b07ae92108)"><g clip-path="url(#4499177221)"><path fill="#8f33c4" d="M 82 139.863281 L 100.25 139.863281 L 100.25 158.113281 L 82 158.113281 Z M 82 139.863281 " fill-opacity="1" fill-rule="nonzero"/></g></g><g clip-path="url(#86995e3731)"><g clip-path="url(#abc5a085b7)"><path stroke-linecap="butt" transform="matrix(0.75, 0, 0, 0.75, 82.001162, 139.86456)" fill="none" stroke-linejoin="miter" d="M 12.165119 -0.00170555 C 5.446368 -0.00170555 -0.00154869 5.446211 -0.00154869 12.164962 C -0.00154869 18.883712 5.446368 24.326421 12.165119 24.326421 C 18.883869 24.326421 24.326578 18.883712 24.326578 12.164962 C 24.326578 5.446211 18.883869 -0.00170555 12.165119 -0.00170555 Z M 12.165119 -0.00170555 " stroke="#000000" stroke-width="4" stroke-opacity="1" stroke-miterlimit="4"/></g></g><g clip-path="url(#d0dab9909a)"><g clip-path="url(#8121191d91)"><path fill="#8f33c4" d="M 150.226562 37.5 L 167.914062 37.5 L 167.914062 55.1875 L 150.226562 55.1875 Z M 150.226562 37.5 " fill-opacity="1" fill-rule="nonzero"/></g></g><g clip-path="url(#93252e0975)"><g clip-path="url(#badb19589e)"><path stroke-linecap="butt" transform="matrix(0.75, 0, 0, 0.75, 150.226972, 37.499998)" fill="none" stroke-linejoin="miter" d="M 11.79112 0.00000328333 C 5.280704 0.00000328333 -0.000546313 5.276045 -0.000546313 11.786462 C -0.000546313 18.302087 5.280704 23.578128 11.79112 23.578128 C 18.301537 23.578128 23.577579 18.302087 23.577579 11.786462 C 23.577579 5.276045 18.301537 0.00000328333 11.79112 0.00000328333 Z M 11.79112 0.00000328333 " stroke="#000000" stroke-width="4" stroke-opacity="1" stroke-miterlimit="4"/></g></g><g clip-path="url(#3476b75d8b)"><g clip-path="url(#7372839604)"><path fill="#8f33c4" d="M 137.761719 106.636719 L 155.414062 106.636719 L 155.414062 124.289062 L 137.761719 124.289062 Z M 137.761719 106.636719 " fill-opacity="1" fill-rule="nonzero"/></g></g><g clip-path="url(#38558bc188)"><g clip-path="url(#f0319f144c)"><path stroke-linecap="butt" transform="matrix(0.75, 0, 0, 0.75, 137.760039, 106.636575)" fill="none" stroke-linejoin="miter" d="M 11.767866 0.000192203 C 5.267865 0.000192203 0.00224013 5.265818 0.00224013 11.765818 C 0.00224013 18.265818 5.267865 23.531444 11.767866 23.531444 C 18.262658 23.531444 23.533492 18.265818 23.533492 11.765818 C 23.533492 5.265818 18.262658 0.000192203 11.767866 0.000192203 Z M 11.767866 0.000192203 " stroke="#000000" stroke-width="4" stroke-opacity="1" stroke-miterlimit="4"/></g></g><g clip-path="url(#fd17269dc4)"><g clip-path="url(#d6d1583142)"><path fill="#8f33c4" d="M 113.894531 144.597656 L 132.058594 144.597656 L 132.058594 162.761719 L 113.894531 162.761719 Z M 113.894531 144.597656 " fill-opacity="1" fill-rule="nonzero"/></g></g><g clip-path="url(#d221a215c7)"><g clip-path="url(#66b3363c77)"><path stroke-linecap="butt" transform="matrix(0.75, 0, 0, 0.75, 113.894932, 144.597531)" fill="none" stroke-linejoin="miter" d="M 12.10884 0.00016766 C 5.42134 0.00016766 -0.000534628 5.422043 -0.000534628 12.109543 C -0.000534628 18.797043 5.42134 24.218918 12.10884 24.218918 C 18.79634 24.218918 24.218215 18.797043 24.218215 12.109543 C 24.218215 5.422043 18.79634 0.00016766 12.10884 0.00016766 Z M 12.10884 0.00016766 " stroke="#000000" stroke-width="4" stroke-opacity="1" stroke-miterlimit="4"/></g></g><g clip-path="url(#63140b626c)"><g clip-path="url(#5d4c5835dc)"><path fill="#eb008b" d="M 288.539062 159.519531 L 306.285156 159.519531 L 306.285156 177.261719 L 288.539062 177.261719 Z M 288.539062 159.519531 " fill-opacity="1" fill-rule="nonzero"/></g></g><g clip-path="url(#37a64dfb10)"><g clip-path="url(#ae63c354d6)"><path stroke-linecap="butt" transform="matrix(0.75, 0, 0, 0.75, 288.540367, 159.518896)" fill="none" stroke-linejoin="miter" d="M 11.826386 0.0008471 C 5.295136 0.0008471 -0.00173954 5.297722 -0.00173954 11.828973 C -0.00173954 18.360223 5.295136 23.657099 11.826386 23.657099 C 18.362845 23.657099 23.654512 18.360223 23.654512 11.828973 C 23.654512 5.297722 18.362845 0.0008471 11.826386 0.0008471 Z M 11.826386 0.0008471 " stroke="#000000" stroke-width="4" stroke-opacity="1" stroke-miterlimit="4"/></g></g><g clip-path="url(#c0c561ba99)"><g clip-path="url(#3aa645df08)"><path fill="#eb008b" d="M 283.792969 110.726562 L 301.441406 110.726562 L 301.441406 128.371094 L 283.792969 128.371094 Z M 283.792969 110.726562 " fill-opacity="1" fill-rule="nonzero"/></g></g><g clip-path="url(#81e86cb03d)"><g clip-path="url(#b27146fa48)"><path stroke-linecap="butt" transform="matrix(0.75, 0, 0, 0.75, 283.794127, 110.725541)" fill="none" stroke-linejoin="miter" d="M 11.758873 0.00136236 C 5.264081 0.00136236 -0.00154495 5.26178 -0.00154495 11.756572 C -0.00154495 18.251365 5.264081 23.51699 11.758873 23.51699 C 18.253666 23.51699 23.514083 18.251365 23.514083 11.756572 C 23.514083 5.26178 18.253666 0.00136236 11.758873 0.00136236 Z M 11.758873 0.00136236 " stroke="#000000" stroke-width="4" stroke-opacity="1" stroke-miterlimit="4"/></g></g><g clip-path="url(#ff19e4546b)"><g clip-path="url(#cc04b1229a)"><path fill="#eb008b" d="M 255.96875 103.839844 L 274.316406 103.839844 L 274.316406 122.1875 L 255.96875 122.1875 Z M 255.96875 103.839844 " fill-opacity="1" fill-rule="nonzero"/></g></g><g clip-path="url(#af054a091b)"><g clip-path="url(#cb039a9cad)"><path stroke-linecap="butt" transform="matrix(0.75, 0, 0, 0.75, 255.967166, 103.83805)" fill="none" stroke-linejoin="miter" d="M 12.226071 0.00239169 C 5.476071 0.00239169 0.00211188 5.47635 0.00211188 12.226351 C 0.00211188 18.98156 5.476071 24.455518 12.226071 24.455518 C 18.98128 24.455518 24.455238 18.98156 24.455238 12.226351 C 24.455238 5.47635 18.98128 0.00239169 12.226071 0.00239169 Z M 12.226071 0.00239169 " stroke="#000000" stroke-width="4" stroke-opacity="1" stroke-miterlimit="4"/></g></g><g clip-path="url(#f82bb15083)"><g clip-path="url(#8b1a395c8f)"><path fill="#eb008b" d="M 263.621094 197.296875 L 281.476562 197.296875 L 281.476562 215.152344 L 263.621094 215.152344 Z M 263.621094 197.296875 " fill-opacity="1" fill-rule="nonzero"/></g></g><g clip-path="url(#8807877b2c)"><g clip-path="url(#2699c21f94)"><path stroke-linecap="butt" transform="matrix(0.75, 0, 0, 0.75, 263.621238, 197.297917)" fill="none" stroke-linejoin="miter" d="M 11.90085 -0.00138993 C 5.327932 -0.00138993 -0.000192852 5.326735 -0.000192852 11.899653 C -0.000192852 18.467361 5.327932 23.795487 11.90085 23.795487 C 18.468558 23.795487 23.796684 18.467361 23.796684 11.899653 C 23.796684 5.326735 18.468558 -0.00138993 11.90085 -0.00138993 Z M 11.90085 -0.00138993 " stroke="#000000" stroke-width="4" stroke-opacity="1" stroke-miterlimit="4"/></g></g><g clip-path="url(#b115a6945f)"><g clip-path="url(#2953a0e4d4)"><path fill="#eb008b" d="M 253.824219 67.160156 L 271.871094 67.160156 L 271.871094 85.207031 L 253.824219 85.207031 Z M 253.824219 67.160156 " fill-opacity="1" fill-rule="nonzero"/></g></g><g clip-path="url(#977bd0d57b)"><g clip-path="url(#f862da78fd)"><path stroke-linecap="butt" transform="matrix(0.75, 0, 0, 0.75, 253.823923, 67.161704)" fill="none" stroke-linejoin="miter" d="M 12.021228 -0.00206312 C 5.380603 -0.00206312 0.00039429 5.383354 0.00039429 12.023979 C 0.00039429 18.664605 5.380603 24.044813 12.021228 24.044813 C 18.661854 24.044813 24.047271 18.664605 24.047271 12.023979 C 24.047271 5.383354 18.661854 -0.00206312 12.021228 -0.00206312 Z M 12.021228 -0.00206312 " stroke="#000000" stroke-width="4" stroke-opacity="1" stroke-miterlimit="4"/></g></g><g clip-path="url(#c2e857011c)"><g clip-path="url(#4c873796a0)"><path fill="#eb008b" d="M 225.800781 209.410156 L 243.894531 209.410156 L 243.894531 227.503906 L 225.800781 227.503906 Z M 225.800781 209.410156 " fill-opacity="1" fill-rule="nonzero"/></g></g><g clip-path="url(#539438c207)"><g clip-path="url(#fc322eeeac)"><path stroke-linecap="butt" transform="matrix(0.75, 0, 0, 0.75, 225.799091, 209.409478)" fill="none" stroke-linejoin="miter" d="M 12.054338 0.000904002 C 5.398087 0.000904002 0.0022533 5.396738 0.0022533 12.052989 C 0.0022533 18.714448 5.398087 24.110282 12.054338 24.110282 C 18.710589 24.110282 24.111631 18.714448 24.111631 12.052989 C 24.111631 5.396738 18.710589 0.000904002 12.054338 0.000904002 Z M 12.054338 0.000904002 " stroke="#000000" stroke-width="4" stroke-opacity="1" stroke-miterlimit="4"/></g></g><g clip-path="url(#17c601274a)"><g clip-path="url(#8953dfee97)"><path fill="#ba0e7f" d="M 196.84375 135.308594 L 214.824219 135.308594 L 214.824219 153.289062 L 196.84375 153.289062 Z M 196.84375 135.308594 " fill-opacity="1" fill-rule="nonzero"/></g></g><g clip-path="url(#8950a5ec06)"><g clip-path="url(#b2fd568301)"><path stroke-linecap="butt" transform="matrix(0.75, 0, 0, 0.75, 196.844788, 135.309836)" fill="none" stroke-linejoin="miter" d="M 11.982992 -0.00165622 C 5.3632 -0.00165622 -0.00138343 5.368136 -0.00138343 11.98272 C -0.00138343 18.602512 5.3632 23.967095 11.982992 23.967095 C 18.602784 23.967095 23.967368 18.602512 23.967368 11.98272 C 23.967368 5.368136 18.602784 -0.00165622 11.982992 -0.00165622 Z M 11.982992 -0.00165622 " stroke="#000000" stroke-width="4" stroke-opacity="1" stroke-miterlimit="4"/></g></g><g clip-path="url(#dbd227d175)"><g clip-path="url(#7af6d5c46e)"><path fill="#ba0e7f" d="M 171.644531 75.851562 L 189.726562 75.851562 L 189.726562 93.933594 L 171.644531 93.933594 Z M 171.644531 75.851562 " fill-opacity="1" fill-rule="nonzero"/></g></g><g clip-path="url(#5e88ff7992)"><g clip-path="url(#0aef851bc1)"><path stroke-linecap="butt" transform="matrix(0.75, 0, 0, 0.75, 171.643997, 75.850483)" fill="none" stroke-linejoin="miter" d="M 12.047588 0.00143931 C 5.391337 0.00143931 0.000712028 5.392065 0.000712028 12.048315 C 0.000712028 18.699357 5.391337 24.095191 12.047588 24.095191 C 18.69863 24.095191 24.094464 18.699357 24.094464 12.048315 C 24.094464 5.392065 18.69863 0.00143931 12.047588 0.00143931 Z M 12.047588 0.00143931 " stroke="#000000" stroke-width="4" stroke-opacity="1" stroke-miterlimit="4"/></g></g><g clip-path="url(#d196b90c26)"><g clip-path="url(#e819030069)"><path fill="#ba0e7f" d="M 167.035156 124.289062 L 185.113281 124.289062 L 185.113281 142.367188 L 167.035156 142.367188 Z M 167.035156 124.289062 " fill-opacity="1" fill-rule="nonzero"/></g></g><g clip-path="url(#9d3319343c)"><g clip-path="url(#3926d8d765)"><path stroke-linecap="butt" transform="matrix(0.75, 0, 0, 0.75, 167.034104, 124.288821)" fill="none" stroke-linejoin="miter" d="M 12.048279 0.000322482 C 5.392028 0.000322482 0.00140309 5.396156 0.00140309 12.047198 C 0.00140309 18.69824 5.392028 24.094074 12.048279 24.094074 C 18.699321 24.094074 24.095155 18.69824 24.095155 12.047198 C 24.095155 5.396156 18.699321 0.000322482 12.048279 0.000322482 Z M 12.048279 0.000322482 " stroke="#000000" stroke-width="4" stroke-opacity="1" stroke-miterlimit="4"/></g></g><g clip-path="url(#420f7c7252)"><g clip-path="url(#382a56e254)"><path fill="#ba0e7f" d="M 134.945312 176.367188 L 153.046875 176.367188 L 153.046875 194.472656 L 134.945312 194.472656 Z M 134.945312 176.367188 " fill-opacity="1" fill-rule="nonzero"/></g></g><g clip-path="url(#4f374a449e)"><g clip-path="url(#f6bbe9f9fa)"><path stroke-linecap="butt" transform="matrix(0.75, 0, 0, 0.75, 134.945943, 176.368875)" fill="none" stroke-linejoin="miter" d="M 12.06166 -0.00224976 C 5.400202 -0.00224976 -0.000840451 5.398792 -0.000840451 12.060251 C -0.000840451 18.726918 5.400202 24.122752 12.06166 24.122752 C 18.723119 24.122752 24.124161 18.726918 24.124161 12.060251 C 24.124161 5.398792 18.723119 -0.00224976 12.06166 -0.00224976 Z M 12.06166 -0.00224976 " stroke="#000000" stroke-width="4" stroke-opacity="1" stroke-miterlimit="4"/></g></g><g clip-path="url(#a4ba1a2d46)"><g clip-path="url(#2ee4a0a5e7)"><path fill="#ba0e7f" d="M 169.191406 168.886719 L 187.359375 168.886719 L 187.359375 187.058594 L 169.191406 187.058594 Z M 169.191406 168.886719 " fill-opacity="1" fill-rule="nonzero"/></g></g><g clip-path="url(#4a3ffb1bf6)"><g clip-path="url(#599cef40b0)"><path stroke-linecap="butt" transform="matrix(0.75, 0, 0, 0.75, 169.19119, 168.888623)" fill="none" stroke-linejoin="miter" d="M 12.109663 -0.00253835 C 5.422163 -0.00253835 0.00028808 5.419337 0.00028808 12.106837 C 0.00028808 18.799545 5.422163 24.216212 12.109663 24.216212 C 18.797163 24.216212 24.219038 18.799545 24.219038 12.106837 C 24.219038 5.419337 18.797163 -0.00253835 12.109663 -0.00253835 Z M 12.109663 -0.00253835 " stroke="#000000" stroke-width="4" stroke-opacity="1" stroke-miterlimit="4"/></g></g><g clip-path="url(#f71f4e20bb)"><g clip-path="url(#3a2995dbcb)"><path fill="#ba0e7f" d="M 233.296875 159.5625 L 251.550781 159.5625 L 251.550781 177.816406 L 233.296875 177.816406 Z M 233.296875 159.5625 " fill-opacity="1" fill-rule="nonzero"/></g></g><g clip-path="url(#834196fb5c)"><g clip-path="url(#0c28d74339)"><path stroke-linecap="butt" transform="matrix(0.75, 0, 0, 0.75, 233.298505, 159.562372)" fill="none" stroke-linejoin="miter" d="M 12.164494 0.000170771 C 5.445743 0.000170771 -0.00217357 5.448088 -0.00217357 12.16163 C -0.00217357 18.88038 5.445743 24.328297 12.164494 24.328297 C 18.883244 24.328297 24.325953 18.88038 24.325953 12.16163 C 24.325953 5.448088 18.883244 0.000170771 12.164494 0.000170771 Z M 12.164494 0.000170771 " stroke="#000000" stroke-width="4" stroke-opacity="1" stroke-miterlimit="4"/></g></g><g clip-path="url(#1b6b4550d4)"><g clip-path="url(#4789fb2335)"><path fill="#ba0e7f" d="M 202.410156 183.96875 L 220.796875 183.96875 L 220.796875 202.355469 L 202.410156 202.355469 Z M 202.410156 183.96875 " fill-opacity="1" fill-rule="nonzero"/></g></g><g clip-path="url(#01182b7463)"><g clip-path="url(#f8c513410d)"><path stroke-linecap="butt" transform="matrix(0.75, 0, 0, 0.75, 202.411808, 183.96989)" fill="none" stroke-linejoin="miter" d="M 12.247798 -0.00152043 C 5.482173 -0.00152043 -0.00220234 5.482855 -0.00220234 12.24848 C -0.00220234 19.014106 5.482173 24.498481 12.247798 24.498481 C 19.013424 24.498481 24.497799 19.014106 24.497799 12.24848 C 24.497799 5.482855 19.013424 -0.00152043 12.247798 -0.00152043 Z M 12.247798 -0.00152043 " stroke="#000000" stroke-width="4" stroke-opacity="1" stroke-miterlimit="4"/></g></g><path stroke-linecap="round" transform="matrix(-0.587368, 0.466367, -0.466367, -0.587368, 237.37496, 177.008484)" fill="none" stroke-linejoin="miter" d="M 4.501068 4.499378 L 23.547888 4.499383 " stroke="#000000" stroke-width="9" stroke-opacity="1" stroke-miterlimit="4"/><path stroke-linecap="round" transform="matrix(0.474997, -0.580412, 0.580412, 0.474997, 181.415573, 168.801318)" fill="none" stroke-linejoin="miter" d="M 4.498074 4.500113 L 29.418254 4.498252 " stroke="#000000" stroke-width="9" stroke-opacity="1" stroke-miterlimit="4"/><path stroke-linecap="round" transform="matrix(-0.0710798, 0.746624, -0.746624, -0.0710798, 183.181516, 94.218011)" fill="none" stroke-linejoin="miter" d="M 4.500038 4.502473 L 36.268 4.502143 " stroke="#000000" stroke-width="9" stroke-opacity="1" stroke-miterlimit="4"/><path stroke-linecap="round" transform="matrix(0.366807, 0.654181, -0.654181, 0.366807, 166.338788, 52.412603)" fill="none" stroke-linejoin="miter" d="M 4.501719 4.49902 L 30.57184 4.499316 " stroke="#000000" stroke-width="9" stroke-opacity="1" stroke-miterlimit="4"/><path stroke-linecap="round" transform="matrix(0.558428, -0.500658, 0.500658, 0.558428, 150.904463, 107.056721)" fill="none" stroke-linejoin="miter" d="M 4.501766 4.501079 L 32.739643 4.502494 " stroke="#000000" stroke-width="9" stroke-opacity="1" stroke-miterlimit="4"/><path stroke-linecap="round" transform="matrix(0.641452, 0.388638, -0.388638, 0.641452, 155.884564, 117.151399)" fill="none" stroke-linejoin="miter" d="M 4.500245 4.497284 L 17.643243 4.499629 " stroke="#000000" stroke-width="9" stroke-opacity="1" stroke-miterlimit="4"/><path stroke-linecap="round" transform="matrix(0.70371, 0.259407, -0.259407, 0.70371, 185.724763, 133.290637)" fill="none" stroke-linejoin="miter" d="M 4.498315 4.501099 L 13.745934 4.500447 " stroke="#000000" stroke-width="9" stroke-opacity="1" stroke-miterlimit="4"/><path stroke-linecap="round" transform="matrix(0.624069, 0.415979, -0.415979, 0.624069, 215.185771, 146.478389)" fill="none" stroke-linejoin="miter" d="M 4.499948 4.502526 L 29.975712 4.502982 " stroke="#000000" stroke-width="9" stroke-opacity="1" stroke-miterlimit="4"/><path stroke-linecap="round" transform="matrix(0.469418, 0.584933, -0.584933, 0.469418, 250.769842, 173.696708)" fill="none" stroke-linejoin="miter" d="M 4.500106 4.500121 L 35.599056 4.501384 " stroke="#000000" stroke-width="9" stroke-opacity="1" stroke-miterlimit="4"/><path stroke-linecap="round" transform="matrix(0.729641, 0.173564, -0.173564, 0.729641, 274.851901, 111.854875)" fill="none" stroke-linejoin="miter" d="M 4.501178 4.497899 L 9.153855 4.499346 " stroke="#000000" stroke-width="9" stroke-opacity="1" stroke-miterlimit="4"/><path stroke-linecap="round" transform="matrix(0.0466553, 0.748547, -0.748547, 0.0466553, 266.772556, 84.985689)" fill="none" stroke-linejoin="miter" d="M 4.497807 4.500879 L 20.435135 4.497494 " stroke="#000000" stroke-width="9" stroke-opacity="1" stroke-miterlimit="4"/><g fill="#000000" fill-opacity="1"><g transform="translate(83.370811, 279.024181)"><g><path d="M 32.703125 -19.59375 L 26.34375 0 L 20.40625 0 L 16.65625 -11.921875 L 12.734375 0 L 6.796875 0 L 0.453125 -19.59375 L 6.15625 -19.59375 L 10.109375 -7.078125 L 14.25 -19.59375 L 19.34375 -19.59375 L 23.296875 -6.96875 L 27.40625 -19.59375 Z M 32.703125 -19.59375 "/></g></g></g><g fill="#000000" fill-opacity="1"><g transform="translate(116.994289, 279.024181)"><g><path d="M 17.703125 -4.28125 L 17.703125 0 L 1.953125 0 L 1.953125 -19.59375 L 17.328125 -19.59375 L 17.328125 -15.3125 L 7.453125 -15.3125 L 7.453125 -12.015625 L 16.15625 -12.015625 L 16.15625 -7.875 L 7.453125 -7.875 L 7.453125 -4.28125 Z M 17.703125 -4.28125 "/></g></g></g><g fill="#000000" fill-opacity="1"><g transform="translate(136.283722, 279.024181)"><g><path d="M 10.53125 -5.203125 L 7.5 -5.203125 L 7.5 0 L 1.953125 0 L 1.953125 -19.59375 L 10.921875 -19.59375 C 12.691406 -19.59375 14.226562 -19.300781 15.53125 -18.71875 C 16.84375 -18.132812 17.851562 -17.296875 18.5625 -16.203125 C 19.269531 -15.109375 19.625 -13.820312 19.625 -12.34375 C 19.625 -10.925781 19.289062 -9.691406 18.625 -8.640625 C 17.96875 -7.585938 17.023438 -6.757812 15.796875 -6.15625 L 20.015625 0 L 14.078125 0 Z M 14.03125 -12.34375 C 14.03125 -13.257812 13.738281 -13.96875 13.15625 -14.46875 C 12.582031 -14.976562 11.722656 -15.234375 10.578125 -15.234375 L 7.5 -15.234375 L 7.5 -9.484375 L 10.578125 -9.484375 C 11.722656 -9.484375 12.582031 -9.726562 13.15625 -10.21875 C 13.738281 -10.71875 14.03125 -11.425781 14.03125 -12.34375 Z M 14.03125 -12.34375 "/></g></g></g><g fill="#000000" fill-opacity="1"><g transform="translate(157.476891, 279.024181)"><g><path d="M 1.953125 -19.59375 L 11.234375 -19.59375 C 13.378906 -19.59375 15.28125 -19.191406 16.9375 -18.390625 C 18.601562 -17.585938 19.890625 -16.445312 20.796875 -14.96875 C 21.710938 -13.5 22.171875 -11.773438 22.171875 -9.796875 C 22.171875 -7.816406 21.710938 -6.085938 20.796875 -4.609375 C 19.890625 -3.140625 18.601562 -2.003906 16.9375 -1.203125 C 15.28125 -0.398438 13.378906 0 11.234375 0 L 1.953125 0 Z M 11 -4.421875 C 12.6875 -4.421875 14.035156 -4.894531 15.046875 -5.84375 C 16.066406 -6.800781 16.578125 -8.117188 16.578125 -9.796875 C 16.578125 -11.472656 16.066406 -12.785156 15.046875 -13.734375 C 14.035156 -14.691406 12.6875 -15.171875 11 -15.171875 L 7.5 -15.171875 L 7.5 -4.421875 Z M 11 -4.421875 "/></g></g></g><g fill="#000000" fill-opacity="1"><g transform="translate(181.077737, 279.024181)"><g><path d="M 8.84375 0.390625 C 7.257812 0.390625 5.71875 0.195312 4.21875 -0.1875 C 2.726562 -0.582031 1.519531 -1.109375 0.59375 -1.765625 L 2.40625 -5.859375 C 3.28125 -5.273438 4.296875 -4.804688 5.453125 -4.453125 C 6.617188 -4.097656 7.757812 -3.921875 8.875 -3.921875 C 11 -3.921875 12.0625 -4.453125 12.0625 -5.515625 C 12.0625 -6.078125 11.757812 -6.492188 11.15625 -6.765625 C 10.550781 -7.035156 9.578125 -7.316406 8.234375 -7.609375 C 6.753906 -7.929688 5.519531 -8.273438 4.53125 -8.640625 C 3.539062 -9.003906 2.691406 -9.585938 1.984375 -10.390625 C 1.273438 -11.191406 0.921875 -12.273438 0.921875 -13.640625 C 0.921875 -14.828125 1.25 -15.898438 1.90625 -16.859375 C 2.5625 -17.828125 3.535156 -18.585938 4.828125 -19.140625 C 6.128906 -19.703125 7.722656 -19.984375 9.609375 -19.984375 C 10.890625 -19.984375 12.15625 -19.835938 13.40625 -19.546875 C 14.65625 -19.265625 15.757812 -18.84375 16.71875 -18.28125 L 15.015625 -14.171875 C 13.140625 -15.179688 11.328125 -15.6875 9.578125 -15.6875 C 8.472656 -15.6875 7.664062 -15.519531 7.15625 -15.1875 C 6.65625 -14.863281 6.40625 -14.441406 6.40625 -13.921875 C 6.40625 -13.390625 6.703125 -12.992188 7.296875 -12.734375 C 7.898438 -12.472656 8.863281 -12.203125 10.1875 -11.921875 C 11.6875 -11.609375 12.925781 -11.269531 13.90625 -10.90625 C 14.882812 -10.539062 15.734375 -9.960938 16.453125 -9.171875 C 17.171875 -8.378906 17.53125 -7.300781 17.53125 -5.9375 C 17.53125 -4.757812 17.203125 -3.691406 16.546875 -2.734375 C 15.890625 -1.785156 14.90625 -1.023438 13.59375 -0.453125 C 12.289062 0.109375 10.707031 0.390625 8.84375 0.390625 Z M 8.84375 0.390625 "/></g></g></g><g fill="#000000" fill-opacity="1"><g transform="translate(199.667266, 279.024181)"><g/></g></g><g fill="#000000" fill-opacity="1"><g transform="translate(208.29016, 279.024181)"><g><path d="M 19.65625 0 L 19.59375 -10.390625 L 14.5625 -1.9375 L 12.09375 -1.9375 L 7.078125 -10.109375 L 7.078125 0 L 1.953125 0 L 1.953125 -19.59375 L 6.53125 -19.59375 L 13.40625 -8.28125 L 20.125 -19.59375 L 24.703125 -19.59375 L 24.75 0 Z M 19.65625 0 "/></g></g></g><g fill="#000000" fill-opacity="1"><g transform="translate(235.474522, 279.024181)"><g><path d="M 1.953125 -19.59375 L 7.5 -19.59375 L 7.5 0 L 1.953125 0 Z M 1.953125 -19.59375 "/></g></g></g><g fill="#000000" fill-opacity="1"><g transform="translate(245.441227, 279.024181)"><g><path d="M 20.609375 -19.59375 L 20.609375 0 L 16.046875 0 L 7.390625 -10.4375 L 7.390625 0 L 1.953125 0 L 1.953125 -19.59375 L 6.53125 -19.59375 L 15.171875 -9.15625 L 15.171875 -19.59375 Z M 20.609375 -19.59375 "/></g></g></g><g fill="#000000" fill-opacity="1"><g transform="translate(268.482142, 279.024181)"><g><path d="M 1.953125 -19.59375 L 11.234375 -19.59375 C 13.378906 -19.59375 15.28125 -19.191406 16.9375 -18.390625 C 18.601562 -17.585938 19.890625 -16.445312 20.796875 -14.96875 C 21.710938 -13.5 22.171875 -11.773438 22.171875 -9.796875 C 22.171875 -7.816406 21.710938 -6.085938 20.796875 -4.609375 C 19.890625 -3.140625 18.601562 -2.003906 16.9375 -1.203125 C 15.28125 -0.398438 13.378906 0 11.234375 0 L 1.953125 0 Z M 11 -4.421875 C 12.6875 -4.421875 14.035156 -4.894531 15.046875 -5.84375 C 16.066406 -6.800781 16.578125 -8.117188 16.578125 -9.796875 C 16.578125 -11.472656 16.066406 -12.785156 15.046875 -13.734375 C 14.035156 -14.691406 12.6875 -15.171875 11 -15.171875 L 7.5 -15.171875 L 7.5 -4.421875 Z M 11 -4.421875 "/></g></g></g><g fill="#000000" fill-opacity="1"><g transform="translate(50.63672, 303.674159)"><g><path d="M 8.9375 0 L 1.765625 0 L 1.765625 -12.84375 L 8.9375 -12.84375 L 8.9375 -11.515625 L 3.265625 -11.515625 L 3.265625 -7.390625 L 8.59375 -7.390625 L 8.59375 -6.0625 L 3.265625 -6.0625 L 3.265625 -1.34375 L 8.9375 -1.34375 Z M 8.9375 0 "/></g></g><g transform="translate(60.647461, 303.674159)"><g><path d="M 3 0 L 1.546875 0 L 1.546875 -13.671875 L 3 -13.671875 Z M 3 0 "/></g></g><g transform="translate(65.200196, 303.674159)"><g/></g><g transform="translate(69.875977, 303.674159)"><g><path d="M 6.03125 0.171875 C 5.40625 0.171875 4.832031 0.0546875 4.3125 -0.171875 C 3.789062 -0.398438 3.351562 -0.753906 3 -1.234375 L 2.90625 -1.234375 C 2.96875 -0.671875 3 -0.140625 3 0.359375 L 3 4.328125 L 1.546875 4.328125 L 1.546875 -9.640625 L 2.734375 -9.640625 L 2.9375 -8.3125 L 3 -8.3125 C 3.375 -8.84375 3.8125 -9.222656 4.3125 -9.453125 C 4.8125 -9.691406 5.382812 -9.8125 6.03125 -9.8125 C 7.3125 -9.8125 8.296875 -9.375 8.984375 -8.5 C 9.679688 -7.625 10.03125 -6.398438 10.03125 -4.828125 C 10.03125 -3.242188 9.675781 -2.015625 8.96875 -1.140625 C 8.257812 -0.265625 7.28125 0.171875 6.03125 0.171875 Z M 5.8125 -8.5625 C 4.832031 -8.5625 4.125 -8.289062 3.6875 -7.75 C 3.25 -7.207031 3.019531 -6.34375 3 -5.15625 L 3 -4.828125 C 3 -3.472656 3.222656 -2.503906 3.671875 -1.921875 C 4.128906 -1.335938 4.859375 -1.046875 5.859375 -1.046875 C 6.691406 -1.046875 7.34375 -1.378906 7.8125 -2.046875 C 8.28125 -2.722656 8.515625 -3.65625 8.515625 -4.84375 C 8.515625 -6.039062 8.28125 -6.957031 7.8125 -7.59375 C 7.34375 -8.238281 6.675781 -8.5625 5.8125 -8.5625 Z M 5.8125 -8.5625 "/></g></g><g transform="translate(80.906249, 303.674159)"><g><path d="M 9.859375 -4.828125 C 9.859375 -3.253906 9.460938 -2.023438 8.671875 -1.140625 C 7.878906 -0.265625 6.785156 0.171875 5.390625 0.171875 C 4.535156 0.171875 3.769531 -0.0234375 3.09375 -0.421875 C 2.425781 -0.828125 1.910156 -1.410156 1.546875 -2.171875 C 1.191406 -2.929688 1.015625 -3.816406 1.015625 -4.828125 C 1.015625 -6.398438 1.40625 -7.625 2.1875 -8.5 C 2.96875 -9.375 4.054688 -9.8125 5.453125 -9.8125 C 6.804688 -9.8125 7.878906 -9.363281 8.671875 -8.46875 C 9.460938 -7.570312 9.859375 -6.359375 9.859375 -4.828125 Z M 2.515625 -4.828125 C 2.515625 -3.597656 2.757812 -2.660156 3.25 -2.015625 C 3.75 -1.367188 4.476562 -1.046875 5.4375 -1.046875 C 6.382812 -1.046875 7.101562 -1.363281 7.59375 -2 C 8.09375 -2.644531 8.34375 -3.585938 8.34375 -4.828125 C 8.34375 -6.046875 8.09375 -6.972656 7.59375 -7.609375 C 7.101562 -8.242188 6.378906 -8.5625 5.421875 -8.5625 C 4.460938 -8.5625 3.738281 -8.25 3.25 -7.625 C 2.757812 -7 2.515625 -6.066406 2.515625 -4.828125 Z M 2.515625 -4.828125 "/></g></g><g transform="translate(91.778319, 303.674159)"><g><path d="M 8.109375 -1.296875 L 8.03125 -1.296875 C 7.351562 -0.316406 6.34375 0.171875 5 0.171875 C 3.738281 0.171875 2.757812 -0.253906 2.0625 -1.109375 C 1.363281 -1.972656 1.015625 -3.203125 1.015625 -4.796875 C 1.015625 -6.378906 1.363281 -7.609375 2.0625 -8.484375 C 2.769531 -9.367188 3.75 -9.8125 5 -9.8125 C 6.3125 -9.8125 7.3125 -9.335938 8 -8.390625 L 8.125 -8.390625 L 8.0625 -9.078125 L 8.03125 -9.75 L 8.03125 -13.671875 L 9.484375 -13.671875 L 9.484375 0 L 8.296875 0 Z M 5.1875 -1.046875 C 6.1875 -1.046875 6.910156 -1.316406 7.359375 -1.859375 C 7.804688 -2.398438 8.03125 -3.273438 8.03125 -4.484375 L 8.03125 -4.796875 C 8.03125 -6.160156 7.800781 -7.132812 7.34375 -7.71875 C 6.882812 -8.300781 6.160156 -8.59375 5.171875 -8.59375 C 4.316406 -8.59375 3.660156 -8.257812 3.203125 -7.59375 C 2.742188 -6.925781 2.515625 -5.984375 2.515625 -4.765625 C 2.515625 -3.535156 2.738281 -2.609375 3.1875 -1.984375 C 3.644531 -1.359375 4.3125 -1.046875 5.1875 -1.046875 Z M 5.1875 -1.046875 "/></g></g><g transform="translate(102.808592, 303.674159)"><g><path d="M 5.609375 0.171875 C 4.191406 0.171875 3.070312 -0.257812 2.25 -1.125 C 1.425781 -1.988281 1.015625 -3.191406 1.015625 -4.734375 C 1.015625 -6.285156 1.394531 -7.519531 2.15625 -8.4375 C 2.925781 -9.351562 3.953125 -9.8125 5.234375 -9.8125 C 6.441406 -9.8125 7.394531 -9.410156 8.09375 -8.609375 C 8.800781 -7.816406 9.15625 -6.769531 9.15625 -5.46875 L 9.15625 -4.546875 L 2.515625 -4.546875 C 2.546875 -3.421875 2.832031 -2.5625 3.375 -1.96875 C 3.914062 -1.382812 4.679688 -1.09375 5.671875 -1.09375 C 6.703125 -1.09375 7.726562 -1.3125 8.75 -1.75 L 8.75 -0.453125 C 8.226562 -0.222656 7.738281 -0.0625 7.28125 0.03125 C 6.820312 0.125 6.265625 0.171875 5.609375 0.171875 Z M 5.21875 -8.59375 C 4.445312 -8.59375 3.832031 -8.335938 3.375 -7.828125 C 2.914062 -7.328125 2.644531 -6.628906 2.5625 -5.734375 L 7.59375 -5.734375 C 7.59375 -6.660156 7.382812 -7.367188 6.96875 -7.859375 C 6.5625 -8.347656 5.976562 -8.59375 5.21875 -8.59375 Z M 5.21875 -8.59375 "/></g></g><g transform="translate(112.907224, 303.674159)"><g><path d="M 5.9375 -9.8125 C 6.363281 -9.8125 6.75 -9.773438 7.09375 -9.703125 L 6.890625 -8.34375 C 6.492188 -8.4375 6.144531 -8.484375 5.84375 -8.484375 C 5.0625 -8.484375 4.390625 -8.164062 3.828125 -7.53125 C 3.273438 -6.894531 3 -6.109375 3 -5.171875 L 3 0 L 1.546875 0 L 1.546875 -9.640625 L 2.75 -9.640625 L 2.921875 -7.84375 L 2.984375 -7.84375 C 3.347656 -8.476562 3.78125 -8.960938 4.28125 -9.296875 C 4.78125 -9.640625 5.332031 -9.8125 5.9375 -9.8125 Z M 5.9375 -9.8125 "/></g></g><g transform="translate(120.25488, 303.674159)"><g/></g><g transform="translate(124.930661, 303.674159)"><g><path d="M 8.109375 -1.296875 L 8.03125 -1.296875 C 7.351562 -0.316406 6.34375 0.171875 5 0.171875 C 3.738281 0.171875 2.757812 -0.253906 2.0625 -1.109375 C 1.363281 -1.972656 1.015625 -3.203125 1.015625 -4.796875 C 1.015625 -6.378906 1.363281 -7.609375 2.0625 -8.484375 C 2.769531 -9.367188 3.75 -9.8125 5 -9.8125 C 6.3125 -9.8125 7.3125 -9.335938 8 -8.390625 L 8.125 -8.390625 L 8.0625 -9.078125 L 8.03125 -9.75 L 8.03125 -13.671875 L 9.484375 -13.671875 L 9.484375 0 L 8.296875 0 Z M 5.1875 -1.046875 C 6.1875 -1.046875 6.910156 -1.316406 7.359375 -1.859375 C 7.804688 -2.398438 8.03125 -3.273438 8.03125 -4.484375 L 8.03125 -4.796875 C 8.03125 -6.160156 7.800781 -7.132812 7.34375 -7.71875 C 6.882812 -8.300781 6.160156 -8.59375 5.171875 -8.59375 C 4.316406 -8.59375 3.660156 -8.257812 3.203125 -7.59375 C 2.742188 -6.925781 2.515625 -5.984375 2.515625 -4.765625 C 2.515625 -3.535156 2.738281 -2.609375 3.1875 -1.984375 C 3.644531 -1.359375 4.3125 -1.046875 5.1875 -1.046875 Z M 5.1875 -1.046875 "/></g></g><g transform="translate(135.960934, 303.674159)"><g><path d="M 5.609375 0.171875 C 4.191406 0.171875 3.070312 -0.257812 2.25 -1.125 C 1.425781 -1.988281 1.015625 -3.191406 1.015625 -4.734375 C 1.015625 -6.285156 1.394531 -7.519531 2.15625 -8.4375 C 2.925781 -9.351562 3.953125 -9.8125 5.234375 -9.8125 C 6.441406 -9.8125 7.394531 -9.410156 8.09375 -8.609375 C 8.800781 -7.816406 9.15625 -6.769531 9.15625 -5.46875 L 9.15625 -4.546875 L 2.515625 -4.546875 C 2.546875 -3.421875 2.832031 -2.5625 3.375 -1.96875 C 3.914062 -1.382812 4.679688 -1.09375 5.671875 -1.09375 C 6.703125 -1.09375 7.726562 -1.3125 8.75 -1.75 L 8.75 -0.453125 C 8.226562 -0.222656 7.738281 -0.0625 7.28125 0.03125 C 6.820312 0.125 6.265625 0.171875 5.609375 0.171875 Z M 5.21875 -8.59375 C 4.445312 -8.59375 3.832031 -8.335938 3.375 -7.828125 C 2.914062 -7.328125 2.644531 -6.628906 2.5625 -5.734375 L 7.59375 -5.734375 C 7.59375 -6.660156 7.382812 -7.367188 6.96875 -7.859375 C 6.5625 -8.347656 5.976562 -8.59375 5.21875 -8.59375 Z M 5.21875 -8.59375 "/></g></g><g transform="translate(146.059566, 303.674159)"><g/></g><g transform="translate(150.735347, 303.674159)"><g><path d="M 3 0 L 1.546875 0 L 1.546875 -13.671875 L 3 -13.671875 Z M 3 0 "/></g></g><g transform="translate(155.288081, 303.674159)"><g><path d="M 7.46875 0 L 7.1875 -1.375 L 7.109375 -1.375 C 6.628906 -0.769531 6.148438 -0.359375 5.671875 -0.140625 C 5.191406 0.0664062 4.597656 0.171875 3.890625 0.171875 C 2.929688 0.171875 2.179688 -0.0703125 1.640625 -0.5625 C 1.097656 -1.050781 0.828125 -1.75 0.828125 -2.65625 C 0.828125 -4.601562 2.382812 -5.625 5.5 -5.71875 L 7.125 -5.78125 L 7.125 -6.375 C 7.125 -7.125 6.960938 -7.679688 6.640625 -8.046875 C 6.316406 -8.410156 5.796875 -8.59375 5.078125 -8.59375 C 4.273438 -8.59375 3.367188 -8.34375 2.359375 -7.84375 L 1.90625 -8.96875 C 2.382812 -9.226562 2.90625 -9.429688 3.46875 -9.578125 C 4.03125 -9.722656 4.597656 -9.796875 5.171875 -9.796875 C 6.316406 -9.796875 7.164062 -9.539062 7.71875 -9.03125 C 8.269531 -8.519531 8.546875 -7.703125 8.546875 -6.578125 L 8.546875 0 Z M 4.171875 -1.03125 C 5.078125 -1.03125 5.789062 -1.273438 6.3125 -1.765625 C 6.832031 -2.265625 7.09375 -2.96875 7.09375 -3.875 L 7.09375 -4.734375 L 5.640625 -4.671875 C 4.472656 -4.628906 3.632812 -4.445312 3.125 -4.125 C 2.613281 -3.8125 2.359375 -3.316406 2.359375 -2.640625 C 2.359375 -2.117188 2.515625 -1.71875 2.828125 -1.4375 C 3.148438 -1.164062 3.597656 -1.03125 4.171875 -1.03125 Z M 4.171875 -1.03125 "/></g></g><g transform="translate(165.298822, 303.674159)"><g/></g><g transform="translate(169.974603, 303.674159)"><g><path d="M 13.828125 0 L 13.828125 -6.265625 C 13.828125 -7.035156 13.660156 -7.609375 13.328125 -7.984375 C 13.003906 -8.367188 12.492188 -8.5625 11.796875 -8.5625 C 10.890625 -8.5625 10.21875 -8.300781 9.78125 -7.78125 C 9.351562 -7.257812 9.140625 -6.457031 9.140625 -5.375 L 9.140625 0 L 7.6875 0 L 7.6875 -6.265625 C 7.6875 -7.035156 7.519531 -7.609375 7.1875 -7.984375 C 6.863281 -8.367188 6.351562 -8.5625 5.65625 -8.5625 C 4.738281 -8.5625 4.066406 -8.285156 3.640625 -7.734375 C 3.210938 -7.191406 3 -6.296875 3 -5.046875 L 3 0 L 1.546875 0 L 1.546875 -9.640625 L 2.734375 -9.640625 L 2.96875 -8.3125 L 3.046875 -8.3125 C 3.316406 -8.78125 3.703125 -9.144531 4.203125 -9.40625 C 4.703125 -9.675781 5.265625 -9.8125 5.890625 -9.8125 C 7.390625 -9.8125 8.375 -9.265625 8.84375 -8.171875 L 8.90625 -8.171875 C 9.195312 -8.679688 9.613281 -9.082031 10.15625 -9.375 C 10.707031 -9.664062 11.332031 -9.8125 12.03125 -9.8125 C 13.113281 -9.8125 13.925781 -9.53125 14.46875 -8.96875 C 15.007812 -8.40625 15.28125 -7.507812 15.28125 -6.28125 L 15.28125 0 Z M 13.828125 0 "/></g></g><g transform="translate(186.717766, 303.674159)"><g><path d="M 5.609375 0.171875 C 4.191406 0.171875 3.070312 -0.257812 2.25 -1.125 C 1.425781 -1.988281 1.015625 -3.191406 1.015625 -4.734375 C 1.015625 -6.285156 1.394531 -7.519531 2.15625 -8.4375 C 2.925781 -9.351562 3.953125 -9.8125 5.234375 -9.8125 C 6.441406 -9.8125 7.394531 -9.410156 8.09375 -8.609375 C 8.800781 -7.816406 9.15625 -6.769531 9.15625 -5.46875 L 9.15625 -4.546875 L 2.515625 -4.546875 C 2.546875 -3.421875 2.832031 -2.5625 3.375 -1.96875 C 3.914062 -1.382812 4.679688 -1.09375 5.671875 -1.09375 C 6.703125 -1.09375 7.726562 -1.3125 8.75 -1.75 L 8.75 -0.453125 C 8.226562 -0.222656 7.738281 -0.0625 7.28125 0.03125 C 6.820312 0.125 6.265625 0.171875 5.609375 0.171875 Z M 5.21875 -8.59375 C 4.445312 -8.59375 3.832031 -8.335938 3.375 -7.828125 C 2.914062 -7.328125 2.644531 -6.628906 2.5625 -5.734375 L 7.59375 -5.734375 C 7.59375 -6.660156 7.382812 -7.367188 6.96875 -7.859375 C 6.5625 -8.347656 5.976562 -8.59375 5.21875 -8.59375 Z M 5.21875 -8.59375 "/></g></g><g transform="translate(196.816399, 303.674159)"><g><path d="M 8.140625 0 L 8.140625 -6.234375 C 8.140625 -7.015625 7.957031 -7.597656 7.59375 -7.984375 C 7.238281 -8.367188 6.679688 -8.5625 5.921875 -8.5625 C 4.910156 -8.5625 4.171875 -8.289062 3.703125 -7.75 C 3.234375 -7.207031 3 -6.304688 3 -5.046875 L 3 0 L 1.546875 0 L 1.546875 -9.640625 L 2.734375 -9.640625 L 2.96875 -8.3125 L 3.046875 -8.3125 C 3.335938 -8.789062 3.753906 -9.160156 4.296875 -9.421875 C 4.835938 -9.679688 5.4375 -9.8125 6.09375 -9.8125 C 7.257812 -9.8125 8.132812 -9.53125 8.71875 -8.96875 C 9.300781 -8.40625 9.59375 -7.507812 9.59375 -6.28125 L 9.59375 0 Z M 8.140625 0 "/></g></g><g transform="translate(207.864249, 303.674159)"><g><path d="M 4.65625 -1.03125 C 4.914062 -1.03125 5.164062 -1.046875 5.40625 -1.078125 C 5.644531 -1.117188 5.835938 -1.160156 5.984375 -1.203125 L 5.984375 -0.09375 C 5.816406 -0.0078125 5.578125 0.0507812 5.265625 0.09375 C 4.960938 0.144531 4.691406 0.171875 4.453125 0.171875 C 2.585938 0.171875 1.65625 -0.804688 1.65625 -2.765625 L 1.65625 -8.5 L 0.265625 -8.5 L 0.265625 -9.203125 L 1.65625 -9.8125 L 2.265625 -11.859375 L 3.109375 -11.859375 L 3.109375 -9.640625 L 5.90625 -9.640625 L 5.90625 -8.5 L 3.109375 -8.5 L 3.109375 -2.828125 C 3.109375 -2.242188 3.242188 -1.796875 3.515625 -1.484375 C 3.796875 -1.179688 4.175781 -1.03125 4.65625 -1.03125 Z M 4.65625 -1.03125 "/></g></g><g transform="translate(214.218741, 303.674159)"><g><path d="M 5.609375 0.171875 C 4.191406 0.171875 3.070312 -0.257812 2.25 -1.125 C 1.425781 -1.988281 1.015625 -3.191406 1.015625 -4.734375 C 1.015625 -6.285156 1.394531 -7.519531 2.15625 -8.4375 C 2.925781 -9.351562 3.953125 -9.8125 5.234375 -9.8125 C 6.441406 -9.8125 7.394531 -9.410156 8.09375 -8.609375 C 8.800781 -7.816406 9.15625 -6.769531 9.15625 -5.46875 L 9.15625 -4.546875 L 2.515625 -4.546875 C 2.546875 -3.421875 2.832031 -2.5625 3.375 -1.96875 C 3.914062 -1.382812 4.679688 -1.09375 5.671875 -1.09375 C 6.703125 -1.09375 7.726562 -1.3125 8.75 -1.75 L 8.75 -0.453125 C 8.226562 -0.222656 7.738281 -0.0625 7.28125 0.03125 C 6.820312 0.125 6.265625 0.171875 5.609375 0.171875 Z M 5.21875 -8.59375 C 4.445312 -8.59375 3.832031 -8.335938 3.375 -7.828125 C 2.914062 -7.328125 2.644531 -6.628906 2.5625 -5.734375 L 7.59375 -5.734375 C 7.59375 -6.660156 7.382812 -7.367188 6.96875 -7.859375 C 6.5625 -8.347656 5.976562 -8.59375 5.21875 -8.59375 Z M 5.21875 -8.59375 "/></g></g><g transform="translate(224.317373, 303.674159)"><g/></g><g transform="translate(228.993154, 303.674159)"><g><path d="M 4.65625 -1.03125 C 4.914062 -1.03125 5.164062 -1.046875 5.40625 -1.078125 C 5.644531 -1.117188 5.835938 -1.160156 5.984375 -1.203125 L 5.984375 -0.09375 C 5.816406 -0.0078125 5.578125 0.0507812 5.265625 0.09375 C 4.960938 0.144531 4.691406 0.171875 4.453125 0.171875 C 2.585938 0.171875 1.65625 -0.804688 1.65625 -2.765625 L 1.65625 -8.5 L 0.265625 -8.5 L 0.265625 -9.203125 L 1.65625 -9.8125 L 2.265625 -11.859375 L 3.109375 -11.859375 L 3.109375 -9.640625 L 5.90625 -9.640625 L 5.90625 -8.5 L 3.109375 -8.5 L 3.109375 -2.828125 C 3.109375 -2.242188 3.242188 -1.796875 3.515625 -1.484375 C 3.796875 -1.179688 4.175781 -1.03125 4.65625 -1.03125 Z M 4.65625 -1.03125 "/></g></g><g transform="translate(235.347646, 303.674159)"><g><path d="M 5.609375 0.171875 C 4.191406 0.171875 3.070312 -0.257812 2.25 -1.125 C 1.425781 -1.988281 1.015625 -3.191406 1.015625 -4.734375 C 1.015625 -6.285156 1.394531 -7.519531 2.15625 -8.4375 C 2.925781 -9.351562 3.953125 -9.8125 5.234375 -9.8125 C 6.441406 -9.8125 7.394531 -9.410156 8.09375 -8.609375 C 8.800781 -7.816406 9.15625 -6.769531 9.15625 -5.46875 L 9.15625 -4.546875 L 2.515625 -4.546875 C 2.546875 -3.421875 2.832031 -2.5625 3.375 -1.96875 C 3.914062 -1.382812 4.679688 -1.09375 5.671875 -1.09375 C 6.703125 -1.09375 7.726562 -1.3125 8.75 -1.75 L 8.75 -0.453125 C 8.226562 -0.222656 7.738281 -0.0625 7.28125 0.03125 C 6.820312 0.125 6.265625 0.171875 5.609375 0.171875 Z M 5.21875 -8.59375 C 4.445312 -8.59375 3.832031 -8.335938 3.375 -7.828125 C 2.914062 -7.328125 2.644531 -6.628906 2.5625 -5.734375 L 7.59375 -5.734375 C 7.59375 -6.660156 7.382812 -7.367188 6.96875 -7.859375 C 6.5625 -8.347656 5.976562 -8.59375 5.21875 -8.59375 Z M 5.21875 -8.59375 "/></g></g><g transform="translate(245.446278, 303.674159)"><g><path d="M 5.390625 0.171875 C 4.003906 0.171875 2.925781 -0.253906 2.15625 -1.109375 C 1.394531 -1.972656 1.015625 -3.1875 1.015625 -4.75 C 1.015625 -6.363281 1.398438 -7.609375 2.171875 -8.484375 C 2.953125 -9.367188 4.0625 -9.8125 5.5 -9.8125 C 5.957031 -9.8125 6.414062 -9.757812 6.875 -9.65625 C 7.34375 -9.5625 7.707031 -9.445312 7.96875 -9.3125 L 7.53125 -8.0625 C 7.207031 -8.195312 6.851562 -8.304688 6.46875 -8.390625 C 6.082031 -8.472656 5.742188 -8.515625 5.453125 -8.515625 C 3.492188 -8.515625 2.515625 -7.265625 2.515625 -4.765625 C 2.515625 -3.585938 2.753906 -2.679688 3.234375 -2.046875 C 3.710938 -1.410156 4.421875 -1.09375 5.359375 -1.09375 C 6.160156 -1.09375 6.984375 -1.269531 7.828125 -1.625 L 7.828125 -0.328125 C 7.179688 0.00390625 6.367188 0.171875 5.390625 0.171875 Z M 5.390625 0.171875 "/></g></g><g transform="translate(254.015614, 303.674159)"><g><path d="M 8.140625 0 L 8.140625 -6.234375 C 8.140625 -7.015625 7.957031 -7.597656 7.59375 -7.984375 C 7.238281 -8.367188 6.679688 -8.5625 5.921875 -8.5625 C 4.910156 -8.5625 4.171875 -8.289062 3.703125 -7.75 C 3.234375 -7.207031 3 -6.304688 3 -5.046875 L 3 0 L 1.546875 0 L 1.546875 -9.640625 L 2.734375 -9.640625 L 2.96875 -8.3125 L 3.046875 -8.3125 C 3.335938 -8.789062 3.753906 -9.160156 4.296875 -9.421875 C 4.835938 -9.679688 5.4375 -9.8125 6.09375 -9.8125 C 7.257812 -9.8125 8.132812 -9.53125 8.71875 -8.96875 C 9.300781 -8.40625 9.59375 -7.507812 9.59375 -6.28125 L 9.59375 0 Z M 8.140625 0 "/></g></g><g transform="translate(265.063464, 303.674159)"><g><path d="M 9.859375 -4.828125 C 9.859375 -3.253906 9.460938 -2.023438 8.671875 -1.140625 C 7.878906 -0.265625 6.785156 0.171875 5.390625 0.171875 C 4.535156 0.171875 3.769531 -0.0234375 3.09375 -0.421875 C 2.425781 -0.828125 1.910156 -1.410156 1.546875 -2.171875 C 1.191406 -2.929688 1.015625 -3.816406 1.015625 -4.828125 C 1.015625 -6.398438 1.40625 -7.625 2.1875 -8.5 C 2.96875 -9.375 4.054688 -9.8125 5.453125 -9.8125 C 6.804688 -9.8125 7.878906 -9.363281 8.671875 -8.46875 C 9.460938 -7.570312 9.859375 -6.359375 9.859375 -4.828125 Z M 2.515625 -4.828125 C 2.515625 -3.597656 2.757812 -2.660156 3.25 -2.015625 C 3.75 -1.367188 4.476562 -1.046875 5.4375 -1.046875 C 6.382812 -1.046875 7.101562 -1.363281 7.59375 -2 C 8.09375 -2.644531 8.34375 -3.585938 8.34375 -4.828125 C 8.34375 -6.046875 8.09375 -6.972656 7.59375 -7.609375 C 7.101562 -8.242188 6.378906 -8.5625 5.421875 -8.5625 C 4.460938 -8.5625 3.738281 -8.25 3.25 -7.625 C 2.757812 -7 2.515625 -6.066406 2.515625 -4.828125 Z M 2.515625 -4.828125 "/></g></g><g transform="translate(275.935534, 303.674159)"><g><path d="M 3 0 L 1.546875 0 L 1.546875 -13.671875 L 3 -13.671875 Z M 3 0 "/></g></g><g transform="translate(280.488268, 303.674159)"><g><path d="M 9.859375 -4.828125 C 9.859375 -3.253906 9.460938 -2.023438 8.671875 -1.140625 C 7.878906 -0.265625 6.785156 0.171875 5.390625 0.171875 C 4.535156 0.171875 3.769531 -0.0234375 3.09375 -0.421875 C 2.425781 -0.828125 1.910156 -1.410156 1.546875 -2.171875 C 1.191406 -2.929688 1.015625 -3.816406 1.015625 -4.828125 C 1.015625 -6.398438 1.40625 -7.625 2.1875 -8.5 C 2.96875 -9.375 4.054688 -9.8125 5.453125 -9.8125 C 6.804688 -9.8125 7.878906 -9.363281 8.671875 -8.46875 C 9.460938 -7.570312 9.859375 -6.359375 9.859375 -4.828125 Z M 2.515625 -4.828125 C 2.515625 -3.597656 2.757812 -2.660156 3.25 -2.015625 C 3.75 -1.367188 4.476562 -1.046875 5.4375 -1.046875 C 6.382812 -1.046875 7.101562 -1.363281 7.59375 -2 C 8.09375 -2.644531 8.34375 -3.585938 8.34375 -4.828125 C 8.34375 -6.046875 8.09375 -6.972656 7.59375 -7.609375 C 7.101562 -8.242188 6.378906 -8.5625 5.421875 -8.5625 C 4.460938 -8.5625 3.738281 -8.25 3.25 -7.625 C 2.757812 -7 2.515625 -6.066406 2.515625 -4.828125 Z M 4.203125 -11.125 C 4.484375 -11.488281 4.785156 -11.925781 5.109375 -12.4375 C 5.441406 -12.957031 5.703125 -13.410156 5.890625 -13.796875 L 7.65625 -13.796875 L 7.65625 -13.609375 C 7.394531 -13.222656 7.007812 -12.75 6.5 -12.1875 C 6 -11.632812 5.5625 -11.207031 5.1875 -10.90625 L 4.203125 -10.90625 Z M 4.203125 -11.125 "/></g></g><g transform="translate(291.360338, 303.674159)"><g><path d="M 9.4375 -9.640625 L 9.4375 -8.703125 L 7.640625 -8.5 C 7.804688 -8.289062 7.953125 -8.019531 8.078125 -7.6875 C 8.210938 -7.363281 8.28125 -6.992188 8.28125 -6.578125 C 8.28125 -5.628906 7.957031 -4.875 7.3125 -4.3125 C 6.664062 -3.75 5.78125 -3.46875 4.65625 -3.46875 C 4.375 -3.46875 4.101562 -3.492188 3.84375 -3.546875 C 3.226562 -3.210938 2.921875 -2.796875 2.921875 -2.296875 C 2.921875 -2.035156 3.023438 -1.84375 3.234375 -1.71875 C 3.453125 -1.59375 3.828125 -1.53125 4.359375 -1.53125 L 6.0625 -1.53125 C 7.101562 -1.53125 7.90625 -1.3125 8.46875 -0.875 C 9.03125 -0.4375 9.3125 0.203125 9.3125 1.046875 C 9.3125 2.109375 8.878906 2.921875 8.015625 3.484375 C 7.160156 4.046875 5.914062 4.328125 4.28125 4.328125 C 3.019531 4.328125 2.046875 4.09375 1.359375 3.625 C 0.679688 3.15625 0.34375 2.492188 0.34375 1.640625 C 0.34375 1.046875 0.53125 0.535156 0.90625 0.109375 C 1.28125 -0.316406 1.804688 -0.601562 2.484375 -0.75 C 2.242188 -0.863281 2.039062 -1.035156 1.875 -1.265625 C 1.707031 -1.503906 1.625 -1.78125 1.625 -2.09375 C 1.625 -2.445312 1.71875 -2.753906 1.90625 -3.015625 C 2.09375 -3.273438 2.382812 -3.53125 2.78125 -3.78125 C 2.289062 -3.988281 1.882812 -4.335938 1.5625 -4.828125 C 1.25 -5.316406 1.09375 -5.878906 1.09375 -6.515625 C 1.09375 -7.566406 1.410156 -8.378906 2.046875 -8.953125 C 2.679688 -9.523438 3.578125 -9.8125 4.734375 -9.8125 C 5.242188 -9.8125 5.695312 -9.753906 6.09375 -9.640625 Z M 1.75 1.625 C 1.75 2.144531 1.96875 2.535156 2.40625 2.796875 C 2.84375 3.066406 3.472656 3.203125 4.296875 3.203125 C 5.523438 3.203125 6.429688 3.019531 7.015625 2.65625 C 7.609375 2.289062 7.90625 1.796875 7.90625 1.171875 C 7.90625 0.648438 7.742188 0.285156 7.421875 0.078125 C 7.097656 -0.117188 6.488281 -0.21875 5.59375 -0.21875 L 3.84375 -0.21875 C 3.1875 -0.21875 2.671875 -0.0625 2.296875 0.25 C 1.929688 0.570312 1.75 1.03125 1.75 1.625 Z M 2.546875 -6.546875 C 2.546875 -5.867188 2.734375 -5.359375 3.109375 -5.015625 C 3.492188 -4.671875 4.023438 -4.5 4.703125 -4.5 C 6.128906 -4.5 6.84375 -5.191406 6.84375 -6.578125 C 6.84375 -8.023438 6.117188 -8.75 4.671875 -8.75 C 3.984375 -8.75 3.457031 -8.5625 3.09375 -8.1875 C 2.726562 -7.820312 2.546875 -7.273438 2.546875 -6.546875 Z M 2.546875 -6.546875 "/></g></g><g transform="translate(301.221665, 303.674159)"><g><path d="M 3 0 L 1.546875 0 L 1.546875 -9.640625 L 3 -9.640625 Z M 1.421875 -12.25 C 1.421875 -12.582031 1.503906 -12.820312 1.671875 -12.96875 C 1.835938 -13.125 2.039062 -13.203125 2.28125 -13.203125 C 2.519531 -13.203125 2.722656 -13.125 2.890625 -12.96875 C 3.054688 -12.8125 3.140625 -12.570312 3.140625 -12.25 C 3.140625 -11.914062 3.054688 -11.664062 2.890625 -11.5 C 2.722656 -11.34375 2.519531 -11.265625 2.28125 -11.265625 C 2.039062 -11.265625 1.835938 -11.34375 1.671875 -11.5 C 1.503906 -11.664062 1.421875 -11.914062 1.421875 -12.25 Z M 1.421875 -12.25 "/></g></g><g transform="translate(305.774399, 303.674159)"><g><path d="M 5.390625 0.171875 C 4.003906 0.171875 2.925781 -0.253906 2.15625 -1.109375 C 1.394531 -1.972656 1.015625 -3.1875 1.015625 -4.75 C 1.015625 -6.363281 1.398438 -7.609375 2.171875 -8.484375 C 2.953125 -9.367188 4.0625 -9.8125 5.5 -9.8125 C 5.957031 -9.8125 6.414062 -9.757812 6.875 -9.65625 C 7.34375 -9.5625 7.707031 -9.445312 7.96875 -9.3125 L 7.53125 -8.0625 C 7.207031 -8.195312 6.851562 -8.304688 6.46875 -8.390625 C 6.082031 -8.472656 5.742188 -8.515625 5.453125 -8.515625 C 3.492188 -8.515625 2.515625 -7.265625 2.515625 -4.765625 C 2.515625 -3.585938 2.753906 -2.679688 3.234375 -2.046875 C 3.710938 -1.410156 4.421875 -1.09375 5.359375 -1.09375 C 6.160156 -1.09375 6.984375 -1.269531 7.828125 -1.625 L 7.828125 -0.328125 C 7.179688 0.00390625 6.367188 0.171875 5.390625 0.171875 Z M 5.390625 0.171875 "/></g></g><g transform="translate(314.343735, 303.674159)"><g><path d="M 7.46875 0 L 7.1875 -1.375 L 7.109375 -1.375 C 6.628906 -0.769531 6.148438 -0.359375 5.671875 -0.140625 C 5.191406 0.0664062 4.597656 0.171875 3.890625 0.171875 C 2.929688 0.171875 2.179688 -0.0703125 1.640625 -0.5625 C 1.097656 -1.050781 0.828125 -1.75 0.828125 -2.65625 C 0.828125 -4.601562 2.382812 -5.625 5.5 -5.71875 L 7.125 -5.78125 L 7.125 -6.375 C 7.125 -7.125 6.960938 -7.679688 6.640625 -8.046875 C 6.316406 -8.410156 5.796875 -8.59375 5.078125 -8.59375 C 4.273438 -8.59375 3.367188 -8.34375 2.359375 -7.84375 L 1.90625 -8.96875 C 2.382812 -9.226562 2.90625 -9.429688 3.46875 -9.578125 C 4.03125 -9.722656 4.597656 -9.796875 5.171875 -9.796875 C 6.316406 -9.796875 7.164062 -9.539062 7.71875 -9.03125 C 8.269531 -8.519531 8.546875 -7.703125 8.546875 -6.578125 L 8.546875 0 Z M 4.171875 -1.03125 C 5.078125 -1.03125 5.789062 -1.273438 6.3125 -1.765625 C 6.832031 -2.265625 7.09375 -2.96875 7.09375 -3.875 L 7.09375 -4.734375 L 5.640625 -4.671875 C 4.472656 -4.628906 3.632812 -4.445312 3.125 -4.125 C 2.613281 -3.8125 2.359375 -3.316406 2.359375 -2.640625 C 2.359375 -2.117188 2.515625 -1.71875 2.828125 -1.4375 C 3.148438 -1.164062 3.597656 -1.03125 4.171875 -1.03125 Z M 4.171875 -1.03125 "/></g></g></g></svg>