<svg xmlns="http://www.w3.org/2000/svg" xmlns:xlink="http://www.w3.org/1999/xlink" width="500" zoomAndPan="magnify" viewBox="0 0 375 374.999991" height="500" preserveAspectRatio="xMidYMid meet" version="1.0"><defs><clipPath id="676bed2c19"><path d="M 64.082031 90.964844 L 86.535156 90.964844 L 86.535156 113.421875 L 64.082031 113.421875 Z M 64.082031 90.964844 " clip-rule="nonzero"/></clipPath><clipPath id="5fd15c6671"><path d="M 75.308594 90.964844 C 69.105469 90.964844 64.082031 95.992188 64.082031 102.195312 C 64.082031 108.394531 69.105469 113.421875 75.308594 113.421875 C 81.507812 113.421875 86.535156 108.394531 86.535156 102.195312 C 86.535156 95.992188 81.507812 90.964844 75.308594 90.964844 Z M 75.308594 90.964844 " clip-rule="nonzero"/></clipPath><clipPath id="ff1eebcba7"><path d="M 64.082031 90.964844 L 86.527344 90.964844 L 86.527344 113.410156 L 64.082031 113.410156 Z M 64.082031 90.964844 " clip-rule="nonzero"/></clipPath><clipPath id="4b5ceb1bc9"><path d="M 75.304688 90.964844 C 69.105469 90.964844 64.082031 95.992188 64.082031 102.1875 C 64.082031 108.386719 69.105469 113.410156 75.304688 113.410156 C 81.5 113.410156 86.527344 108.386719 86.527344 102.1875 C 86.527344 95.992188 81.5 90.964844 75.304688 90.964844 Z M 75.304688 90.964844 " clip-rule="nonzero"/></clipPath><clipPath id="dc2b56438f"><path d="M 37.5 126.578125 L 59.804688 126.578125 L 59.804688 148.882812 L 37.5 148.882812 Z M 37.5 126.578125 " clip-rule="nonzero"/></clipPath><clipPath id="3d1f2de296"><path d="M 48.652344 126.578125 C 42.492188 126.578125 37.5 131.570312 37.5 137.730469 C 37.5 143.890625 42.492188 148.882812 48.652344 148.882812 C 54.8125 148.882812 59.804688 143.890625 59.804688 137.730469 C 59.804688 131.570312 54.8125 126.578125 48.652344 126.578125 Z M 48.652344 126.578125 " clip-rule="nonzero"/></clipPath><clipPath id="558dcc3227"><path d="M 37.5 126.578125 L 59.800781 126.578125 L 59.800781 148.875 L 37.5 148.875 Z M 37.5 126.578125 " clip-rule="nonzero"/></clipPath><clipPath id="68f0f60faf"><path d="M 48.648438 126.578125 C 42.492188 126.578125 37.5 131.570312 37.5 137.726562 C 37.5 143.882812 42.492188 148.875 48.648438 148.875 C 54.808594 148.875 59.800781 143.882812 59.800781 137.726562 C 59.800781 131.570312 54.808594 126.578125 48.648438 126.578125 Z M 48.648438 126.578125 " clip-rule="nonzero"/></clipPath><clipPath id="1613ab932b"><path d="M 54.277344 186.808594 L 77.324219 186.808594 L 77.324219 209.855469 L 54.277344 209.855469 Z M 54.277344 186.808594 " clip-rule="nonzero"/></clipPath><clipPath id="9c610cbe2a"><path d="M 65.800781 186.808594 C 59.4375 186.808594 54.277344 191.96875 54.277344 198.332031 C 54.277344 204.695312 59.4375 209.855469 65.800781 209.855469 C 72.164062 209.855469 77.324219 204.695312 77.324219 198.332031 C 77.324219 191.96875 72.164062 186.808594 65.800781 186.808594 Z M 65.800781 186.808594 " clip-rule="nonzero"/></clipPath><clipPath id="03036306ce"><path d="M 54.277344 186.808594 L 77.316406 186.808594 L 77.316406 209.847656 L 54.277344 209.847656 Z M 54.277344 186.808594 " clip-rule="nonzero"/></clipPath><clipPath id="831f4fd350"><path d="M 65.796875 186.808594 C 59.433594 186.808594 54.277344 191.96875 54.277344 198.328125 C 54.277344 204.691406 59.433594 209.847656 65.796875 209.847656 C 72.160156 209.847656 77.316406 204.691406 77.316406 198.328125 C 77.316406 191.96875 72.160156 186.808594 65.796875 186.808594 Z M 65.796875 186.808594 " clip-rule="nonzero"/></clipPath><clipPath id="5234e3cc7a"><path d="M 140.433594 57.546875 L 162.769531 57.546875 L 162.769531 79.882812 L 140.433594 79.882812 Z M 140.433594 57.546875 " clip-rule="nonzero"/></clipPath><clipPath id="9fb78cd2de"><path d="M 151.601562 57.546875 C 145.433594 57.546875 140.433594 62.546875 140.433594 68.714844 C 140.433594 74.882812 145.433594 79.882812 151.601562 79.882812 C 157.769531 79.882812 162.769531 74.882812 162.769531 68.714844 C 162.769531 62.546875 157.769531 57.546875 151.601562 57.546875 Z M 151.601562 57.546875 " clip-rule="nonzero"/></clipPath><clipPath id="bc6a8c2b8a"><path d="M 124.6875 144.851562 L 146.980469 144.851562 L 146.980469 167.140625 L 124.6875 167.140625 Z M 124.6875 144.851562 " clip-rule="nonzero"/></clipPath><clipPath id="bbd5f246ca"><path d="M 135.835938 144.851562 C 129.679688 144.851562 124.6875 149.839844 124.6875 155.996094 C 124.6875 162.152344 129.679688 167.140625 135.835938 167.140625 C 141.988281 167.140625 146.980469 162.152344 146.980469 155.996094 C 146.980469 149.839844 141.988281 144.851562 135.835938 144.851562 Z M 135.835938 144.851562 " clip-rule="nonzero"/></clipPath><clipPath id="f08b472681"><path d="M 124.6875 144.851562 L 146.976562 144.851562 L 146.976562 167.136719 L 124.6875 167.136719 Z M 124.6875 144.851562 " clip-rule="nonzero"/></clipPath><clipPath id="0a752197c4"><path d="M 135.832031 144.851562 C 129.679688 144.851562 124.6875 149.839844 124.6875 155.992188 C 124.6875 162.148438 129.679688 167.136719 135.832031 167.136719 C 141.988281 167.136719 146.976562 162.148438 146.976562 155.992188 C 146.976562 149.839844 141.988281 144.851562 135.832031 144.851562 Z M 135.832031 144.851562 " clip-rule="nonzero"/></clipPath><clipPath id="2998fc4012"><path d="M 94.550781 192.785156 L 117.488281 192.785156 L 117.488281 215.722656 L 94.550781 215.722656 Z M 94.550781 192.785156 " clip-rule="nonzero"/></clipPath><clipPath id="c7fc05400d"><path d="M 106.019531 192.785156 C 99.6875 192.785156 94.550781 197.921875 94.550781 204.253906 C 94.550781 210.589844 99.6875 215.722656 106.019531 215.722656 C 112.355469 215.722656 117.488281 210.589844 117.488281 204.253906 C 117.488281 197.921875 112.355469 192.785156 106.019531 192.785156 Z M 106.019531 192.785156 " clip-rule="nonzero"/></clipPath><clipPath id="262268f3cd"><path d="M 94.550781 192.785156 L 117.484375 192.785156 L 117.484375 215.71875 L 94.550781 215.71875 Z M 94.550781 192.785156 " clip-rule="nonzero"/></clipPath><clipPath id="df26ec7f00"><path d="M 106.019531 192.785156 C 99.6875 192.785156 94.550781 197.917969 94.550781 204.25 C 94.550781 210.582031 99.6875 215.71875 106.019531 215.71875 C 112.351562 215.71875 117.484375 210.582031 117.484375 204.25 C 117.484375 197.917969 112.351562 192.785156 106.019531 192.785156 Z M 106.019531 192.785156 " clip-rule="nonzero"/></clipPath><clipPath id="ca0790ac18"><path d="M 315.09375 211.628906 L 337.5 211.628906 L 337.5 234.035156 L 315.09375 234.035156 Z M 315.09375 211.628906 " clip-rule="nonzero"/></clipPath><clipPath id="f9198d8452"><path d="M 326.296875 211.628906 C 320.109375 211.628906 315.09375 216.644531 315.09375 222.832031 C 315.09375 229.019531 320.109375 234.035156 326.296875 234.035156 C 332.484375 234.035156 337.5 229.019531 337.5 222.832031 C 337.5 216.644531 332.484375 211.628906 326.296875 211.628906 Z M 326.296875 211.628906 " clip-rule="nonzero"/></clipPath><clipPath id="dc1274e941"><path d="M 315.09375 211.628906 L 337.488281 211.628906 L 337.488281 234.027344 L 315.09375 234.027344 Z M 315.09375 211.628906 " clip-rule="nonzero"/></clipPath><clipPath id="af546bc313"><path d="M 326.289062 211.628906 C 320.105469 211.628906 315.09375 216.640625 315.09375 222.828125 C 315.09375 229.011719 320.105469 234.027344 326.289062 234.027344 C 332.476562 234.027344 337.488281 229.011719 337.488281 222.828125 C 337.488281 216.640625 332.476562 211.628906 326.289062 211.628906 Z M 326.289062 211.628906 " clip-rule="nonzero"/></clipPath><clipPath id="f859b64ab6"><path d="M 309.097656 150.011719 L 331.382812 150.011719 L 331.382812 172.296875 L 309.097656 172.296875 Z M 309.097656 150.011719 " clip-rule="nonzero"/></clipPath><clipPath id="50e9c68914"><path d="M 320.242188 150.011719 C 314.085938 150.011719 309.097656 155 309.097656 161.15625 C 309.097656 167.308594 314.085938 172.296875 320.242188 172.296875 C 326.394531 172.296875 331.382812 167.308594 331.382812 161.15625 C 331.382812 155 326.394531 150.011719 320.242188 150.011719 Z M 320.242188 150.011719 " clip-rule="nonzero"/></clipPath><clipPath id="e5cb45c018"><path d="M 309.097656 150.011719 L 331.375 150.011719 L 331.375 172.289062 L 309.097656 172.289062 Z M 309.097656 150.011719 " clip-rule="nonzero"/></clipPath><clipPath id="95bc127ea0"><path d="M 320.238281 150.011719 C 314.085938 150.011719 309.097656 155 309.097656 161.152344 C 309.097656 167.300781 314.085938 172.289062 320.238281 172.289062 C 326.386719 172.289062 331.375 167.300781 331.375 161.152344 C 331.375 155 326.386719 150.011719 320.238281 150.011719 Z M 320.238281 150.011719 " clip-rule="nonzero"/></clipPath><clipPath id="940199a248"><path d="M 273.960938 141.316406 L 297.132812 141.316406 L 297.132812 164.488281 L 273.960938 164.488281 Z M 273.960938 141.316406 " clip-rule="nonzero"/></clipPath><clipPath id="126a5dd74a"><path d="M 285.546875 141.316406 C 279.148438 141.316406 273.960938 146.503906 273.960938 152.902344 C 273.960938 159.300781 279.148438 164.488281 285.546875 164.488281 C 291.945312 164.488281 297.132812 159.300781 297.132812 152.902344 C 297.132812 146.503906 291.945312 141.316406 285.546875 141.316406 Z M 285.546875 141.316406 " clip-rule="nonzero"/></clipPath><clipPath id="2610eb9535"><path d="M 273.960938 141.316406 L 297.121094 141.316406 L 297.121094 164.476562 L 273.960938 164.476562 Z M 273.960938 141.316406 " clip-rule="nonzero"/></clipPath><clipPath id="13ecf1137a"><path d="M 285.539062 141.316406 C 279.144531 141.316406 273.960938 146.5 273.960938 152.894531 C 273.960938 159.292969 279.144531 164.476562 285.539062 164.476562 C 291.9375 164.476562 297.121094 159.292969 297.121094 152.894531 C 297.121094 146.5 291.9375 141.316406 285.539062 141.316406 Z M 285.539062 141.316406 " clip-rule="nonzero"/></clipPath><clipPath id="2cb1b78bf4"><path d="M 283.625 259.335938 L 306.171875 259.335938 L 306.171875 281.882812 L 283.625 281.882812 Z M 283.625 259.335938 " clip-rule="nonzero"/></clipPath><clipPath id="dd04285471"><path d="M 294.898438 259.335938 C 288.671875 259.335938 283.625 264.382812 283.625 270.609375 C 283.625 276.835938 288.671875 281.882812 294.898438 281.882812 C 301.125 281.882812 306.171875 276.835938 306.171875 270.609375 C 306.171875 264.382812 301.125 259.335938 294.898438 259.335938 Z M 294.898438 259.335938 " clip-rule="nonzero"/></clipPath><clipPath id="db92d5f1ad"><path d="M 283.625 259.335938 L 306.144531 259.335938 L 306.144531 281.855469 L 283.625 281.855469 Z M 283.625 259.335938 " clip-rule="nonzero"/></clipPath><clipPath id="6b9a868e99"><path d="M 294.894531 259.335938 C 288.671875 259.335938 283.625 264.382812 283.625 270.605469 C 283.625 276.832031 288.671875 281.878906 294.894531 281.878906 C 301.121094 281.878906 306.167969 276.832031 306.167969 270.605469 C 306.167969 264.382812 301.121094 259.335938 294.894531 259.335938 Z M 294.894531 259.335938 " clip-rule="nonzero"/></clipPath><clipPath id="6ab8a6888d"><path d="M 271.253906 95 L 294.042969 95 L 294.042969 117.789062 L 271.253906 117.789062 Z M 271.253906 95 " clip-rule="nonzero"/></clipPath><clipPath id="b1e4e9623d"><path d="M 282.648438 95 C 276.355469 95 271.253906 100.101562 271.253906 106.394531 C 271.253906 112.6875 276.355469 117.789062 282.648438 117.789062 C 288.941406 117.789062 294.042969 112.6875 294.042969 106.394531 C 294.042969 100.101562 288.941406 95 282.648438 95 Z M 282.648438 95 " clip-rule="nonzero"/></clipPath><clipPath id="e3cbf8c704"><path d="M 271.253906 95 L 293.769531 95 L 293.769531 117.519531 L 271.253906 117.519531 Z M 271.253906 95 " clip-rule="nonzero"/></clipPath><clipPath id="88eddf28dc"><path d="M 282.644531 95 C 276.351562 95 271.253906 100.101562 271.253906 106.394531 C 271.253906 112.6875 276.351562 117.785156 282.644531 117.785156 C 288.9375 117.785156 294.039062 112.6875 294.039062 106.394531 C 294.039062 100.101562 288.9375 95 282.644531 95 Z M 282.644531 95 " clip-rule="nonzero"/></clipPath><clipPath id="a4ab6bf02a"><path d="M 235.863281 274.628906 L 258.710938 274.628906 L 258.710938 297.476562 L 235.863281 297.476562 Z M 235.863281 274.628906 " clip-rule="nonzero"/></clipPath><clipPath id="5f4a80d1ca"><path d="M 247.289062 274.628906 C 240.976562 274.628906 235.863281 279.746094 235.863281 286.054688 C 235.863281 292.363281 240.976562 297.476562 247.289062 297.476562 C 253.597656 297.476562 258.710938 292.363281 258.710938 286.054688 C 258.710938 279.746094 253.597656 274.628906 247.289062 274.628906 Z M 247.289062 274.628906 " clip-rule="nonzero"/></clipPath><clipPath id="381fccc74d"><path d="M 235.863281 274.628906 L 258.382812 274.628906 L 258.382812 297.148438 L 235.863281 297.148438 Z M 235.863281 274.628906 " clip-rule="nonzero"/></clipPath><clipPath id="d7e8c74fa7"><path d="M 247.285156 274.628906 C 240.976562 274.628906 235.863281 279.742188 235.863281 286.050781 C 235.863281 292.363281 240.976562 297.476562 247.285156 297.476562 C 253.59375 297.476562 258.710938 292.363281 258.710938 286.050781 C 258.710938 279.742188 253.59375 274.628906 247.285156 274.628906 Z M 247.285156 274.628906 " clip-rule="nonzero"/></clipPath><clipPath id="a610ef1e8f"><path d="M 199.300781 181.058594 L 222.003906 181.058594 L 222.003906 203.761719 L 199.300781 203.761719 Z M 199.300781 181.058594 " clip-rule="nonzero"/></clipPath><clipPath id="c796893844"><path d="M 210.652344 181.058594 C 204.382812 181.058594 199.300781 186.140625 199.300781 192.410156 C 199.300781 198.679688 204.382812 203.761719 210.652344 203.761719 C 216.921875 203.761719 222.003906 198.679688 222.003906 192.410156 C 222.003906 186.140625 216.921875 181.058594 210.652344 181.058594 Z M 210.652344 181.058594 " clip-rule="nonzero"/></clipPath><clipPath id="a5721fcd21"><path d="M 199.300781 181.058594 L 221.820312 181.058594 L 221.820312 203.574219 L 199.300781 203.574219 Z M 199.300781 181.058594 " clip-rule="nonzero"/></clipPath><clipPath id="826d0a6584"><path d="M 210.652344 181.058594 C 204.382812 181.058594 199.300781 186.140625 199.300781 192.40625 C 199.300781 198.675781 204.382812 203.757812 210.652344 203.757812 C 216.917969 203.757812 222 198.675781 222 192.40625 C 222 186.140625 216.917969 181.058594 210.652344 181.058594 Z M 210.652344 181.058594 " clip-rule="nonzero"/></clipPath><clipPath id="884a9e3305"><path d="M 167.476562 105.972656 L 190.3125 105.972656 L 190.3125 128.808594 L 167.476562 128.808594 Z M 167.476562 105.972656 " clip-rule="nonzero"/></clipPath><clipPath id="016ecc1ae3"><path d="M 178.894531 105.972656 C 172.589844 105.972656 167.476562 111.085938 167.476562 117.390625 C 167.476562 123.695312 172.589844 128.808594 178.894531 128.808594 C 185.199219 128.808594 190.3125 123.695312 190.3125 117.390625 C 190.3125 111.085938 185.199219 105.972656 178.894531 105.972656 Z M 178.894531 105.972656 " clip-rule="nonzero"/></clipPath><clipPath id="3b0b711110"><path d="M 167.476562 105.972656 L 189.996094 105.972656 L 189.996094 128.492188 L 167.476562 128.492188 Z M 167.476562 105.972656 " clip-rule="nonzero"/></clipPath><clipPath id="7ff126ceaf"><path d="M 178.894531 105.972656 C 172.589844 105.972656 167.476562 111.085938 167.476562 117.390625 C 167.476562 123.695312 172.589844 128.808594 178.894531 128.808594 C 185.199219 128.808594 190.3125 123.695312 190.3125 117.390625 C 190.3125 111.085938 185.199219 105.972656 178.894531 105.972656 Z M 178.894531 105.972656 " clip-rule="nonzero"/></clipPath><clipPath id="2c0f73ea23"><path d="M 161.65625 167.140625 L 184.484375 167.140625 L 184.484375 189.972656 L 161.65625 189.972656 Z M 161.65625 167.140625 " clip-rule="nonzero"/></clipPath><clipPath id="0b1c094d48"><path d="M 173.070312 167.140625 C 166.765625 167.140625 161.65625 172.25 161.65625 178.554688 C 161.65625 184.859375 166.765625 189.972656 173.070312 189.972656 C 179.375 189.972656 184.484375 184.859375 184.484375 178.554688 C 184.484375 172.25 179.375 167.140625 173.070312 167.140625 Z M 173.070312 167.140625 " clip-rule="nonzero"/></clipPath><clipPath id="337dd1c1e3"><path d="M 161.65625 167.140625 L 184.175781 167.140625 L 184.175781 189.660156 L 161.65625 189.660156 Z M 161.65625 167.140625 " clip-rule="nonzero"/></clipPath><clipPath id="afa79ebc09"><path d="M 173.066406 167.140625 C 166.765625 167.140625 161.65625 172.25 161.65625 178.550781 C 161.65625 184.855469 166.765625 189.960938 173.066406 189.960938 C 179.367188 189.960938 184.476562 184.855469 184.476562 178.550781 C 184.476562 172.25 179.367188 167.140625 173.066406 167.140625 Z M 173.066406 167.140625 " clip-rule="nonzero"/></clipPath><clipPath id="8d28c0b8e5"><path d="M 121.136719 232.90625 L 143.996094 232.90625 L 143.996094 255.765625 L 121.136719 255.765625 Z M 121.136719 232.90625 " clip-rule="nonzero"/></clipPath><clipPath id="242e5398b6"><path d="M 132.566406 232.90625 C 126.253906 232.90625 121.136719 238.023438 121.136719 244.335938 C 121.136719 250.648438 126.253906 255.765625 132.566406 255.765625 C 138.878906 255.765625 143.996094 250.648438 143.996094 244.335938 C 143.996094 238.023438 138.878906 232.90625 132.566406 232.90625 Z M 132.566406 232.90625 " clip-rule="nonzero"/></clipPath><clipPath id="88d522c2eb"><path d="M 121.136719 232.90625 L 143.652344 232.90625 L 143.652344 255.425781 L 121.136719 255.425781 Z M 121.136719 232.90625 " clip-rule="nonzero"/></clipPath><clipPath id="c1e880440e"><path d="M 132.566406 232.90625 C 126.253906 232.90625 121.136719 238.023438 121.136719 244.335938 C 121.136719 250.648438 126.253906 255.765625 132.566406 255.765625 C 138.875 255.765625 143.992188 250.648438 143.992188 244.335938 C 143.992188 238.023438 138.875 232.90625 132.566406 232.90625 Z M 132.566406 232.90625 " clip-rule="nonzero"/></clipPath><clipPath id="c375e0ae91"><path d="M 164.378906 223.460938 L 187.324219 223.460938 L 187.324219 246.402344 L 164.378906 246.402344 Z M 164.378906 223.460938 " clip-rule="nonzero"/></clipPath><clipPath id="f4f4fb3b49"><path d="M 175.851562 223.460938 C 169.515625 223.460938 164.378906 228.597656 164.378906 234.933594 C 164.378906 241.269531 169.515625 246.402344 175.851562 246.402344 C 182.1875 246.402344 187.324219 241.269531 187.324219 234.933594 C 187.324219 228.597656 182.1875 223.460938 175.851562 223.460938 Z M 175.851562 223.460938 " clip-rule="nonzero"/></clipPath><clipPath id="e80fe7be3a"><path d="M 164.378906 223.460938 L 187.324219 223.460938 L 187.324219 246.402344 L 164.378906 246.402344 Z M 164.378906 223.460938 " clip-rule="nonzero"/></clipPath><clipPath id="babf54ba86"><path d="M 175.851562 223.460938 C 169.515625 223.460938 164.378906 228.597656 164.378906 234.933594 C 164.378906 241.265625 169.515625 246.402344 175.851562 246.402344 C 182.1875 246.402344 187.324219 241.265625 187.324219 234.933594 C 187.324219 228.597656 182.1875 223.460938 175.851562 223.460938 Z M 175.851562 223.460938 " clip-rule="nonzero"/></clipPath><clipPath id="da0e4e4e61"><path d="M 245.332031 211.683594 L 268.382812 211.683594 L 268.382812 234.734375 L 245.332031 234.734375 Z M 245.332031 211.683594 " clip-rule="nonzero"/></clipPath><clipPath id="151193536a"><path d="M 256.859375 211.683594 C 250.492188 211.683594 245.332031 216.84375 245.332031 223.210938 C 245.332031 229.574219 250.492188 234.734375 256.859375 234.734375 C 263.222656 234.734375 268.382812 229.574219 268.382812 223.210938 C 268.382812 216.84375 263.222656 211.683594 256.859375 211.683594 Z M 256.859375 211.683594 " clip-rule="nonzero"/></clipPath><clipPath id="86b0e5f470"><path d="M 245.332031 211.683594 L 268.375 211.683594 L 268.375 234.722656 L 245.332031 234.722656 Z M 245.332031 211.683594 " clip-rule="nonzero"/></clipPath><clipPath id="601f13db27"><path d="M 256.855469 211.683594 C 250.492188 211.683594 245.332031 216.839844 245.332031 223.203125 C 245.332031 229.566406 250.492188 234.722656 256.855469 234.722656 C 263.214844 234.722656 268.375 229.566406 268.375 223.203125 C 268.375 216.839844 263.214844 211.683594 256.855469 211.683594 Z M 256.855469 211.683594 " clip-rule="nonzero"/></clipPath><clipPath id="bd6a07a0c9"><path d="M 206.332031 242.503906 L 229.546875 242.503906 L 229.546875 265.71875 L 206.332031 265.71875 Z M 206.332031 242.503906 " clip-rule="nonzero"/></clipPath><clipPath id="749d959fd3"><path d="M 217.9375 242.503906 C 211.527344 242.503906 206.332031 247.703125 206.332031 254.113281 C 206.332031 260.523438 211.527344 265.71875 217.9375 265.71875 C 224.347656 265.71875 229.546875 260.523438 229.546875 254.113281 C 229.546875 247.703125 224.347656 242.503906 217.9375 242.503906 Z M 217.9375 242.503906 " clip-rule="nonzero"/></clipPath><clipPath id="1c426f9872"><path d="M 206.332031 242.503906 L 229.539062 242.503906 L 229.539062 265.714844 L 206.332031 265.714844 Z M 206.332031 242.503906 " clip-rule="nonzero"/></clipPath><clipPath id="82c3ab27e8"><path d="M 217.933594 242.503906 C 211.527344 242.503906 206.332031 247.699219 206.332031 254.109375 C 206.332031 260.519531 211.527344 265.714844 217.933594 265.714844 C 224.34375 265.714844 229.539062 260.519531 229.539062 254.109375 C 229.539062 247.699219 224.34375 242.503906 217.933594 242.503906 Z M 217.933594 242.503906 " clip-rule="nonzero"/></clipPath></defs><path stroke-linecap="round" transform="matrix(0.580354, 0.515871, -0.515871, 0.580354, 86.535709, 106.463782)" fill="none" stroke-linejoin="miter" d="M 5.49954 5.498976 L 69.982107 5.500579 " stroke="#000000" stroke-width="11" stroke-opacity="1" stroke-miterlimit="4"/><path stroke-linecap="round" transform="matrix(0.507096, 0.588036, -0.588036, 0.507096, 59.16973, 143.391202)" fill="none" stroke-linejoin="miter" d="M 5.498037 5.501547 L 78.498441 5.499366 " stroke="#000000" stroke-width="11" stroke-opacity="1" stroke-miterlimit="4"/><path stroke-linecap="round" transform="matrix(0.38452, 0.674595, -0.674595, 0.38452, 185.24135, 242.789281)" fill="none" stroke-linejoin="miter" d="M 5.49784 5.500853 L 98.916625 5.500105 " stroke="#000000" stroke-width="11" stroke-opacity="1" stroke-miterlimit="4"/><path stroke-linecap="round" transform="matrix(0.736721, 0.245307, -0.245307, 0.736721, 191.078195, 116.947024)" fill="none" stroke-linejoin="miter" d="M 5.500128 5.499247 L 109.631463 5.502922 " stroke="#000000" stroke-width="11" stroke-opacity="1" stroke-miterlimit="4"/><path stroke-linecap="round" transform="matrix(0.746249, 0.214584, -0.214584, 0.746249, 163.516254, 67.697223)" fill="none" stroke-linejoin="miter" d="M 5.500761 5.497991 L 141.043527 5.498766 " stroke="#000000" stroke-width="11" stroke-opacity="1" stroke-miterlimit="4"/><path stroke-linecap="round" transform="matrix(0.439478, 0.64015, -0.64015, 0.439478, 292.615063, 113.378313)" fill="none" stroke-linejoin="miter" d="M 5.5004 5.499726 L 51.016466 5.498819 " stroke="#000000" stroke-width="11" stroke-opacity="1" stroke-miterlimit="4"/><path stroke-linecap="round" transform="matrix(0.465917, -0.621172, 0.621172, 0.465917, 51.9281, 126.241866)" fill="none" stroke-linejoin="miter" d="M 5.500632 5.498173 L 22.884595 5.501519 " stroke="#000000" stroke-width="11" stroke-opacity="1" stroke-miterlimit="4"/><path stroke-linecap="round" transform="matrix(0.711034, -0.312031, 0.312031, 0.711034, 83.875012, 93.768275)" fill="none" stroke-linejoin="miter" d="M 5.498751 5.496843 L 72.948877 5.501878 " stroke="#000000" stroke-width="11" stroke-opacity="1" stroke-miterlimit="4"/><path stroke-linecap="round" transform="matrix(0.211408, 0.747155, -0.747155, 0.211408, 55.797334, 147.305381)" fill="none" stroke-linejoin="miter" d="M 5.5011 5.499191 L 46.400337 5.501712 " stroke="#000000" stroke-width="11" stroke-opacity="1" stroke-miterlimit="4"/><path stroke-linecap="round" transform="matrix(0.768205, 0.113116, -0.113116, 0.768205, 77.824526, 195.786784)" fill="none" stroke-linejoin="miter" d="M 5.497559 5.498755 L 17.243594 5.49806 " stroke="#000000" stroke-width="11" stroke-opacity="1" stroke-miterlimit="4"/><path stroke-linecap="round" transform="matrix(0.0382501, 0.775545, -0.775545, 0.0382501, 177.893621, 189.752332)" fill="none" stroke-linejoin="miter" d="M 5.497971 5.498164 L 37.718123 5.500686 " stroke="#000000" stroke-width="11" stroke-opacity="1" stroke-miterlimit="4"/><path stroke-linecap="round" transform="matrix(0.428738, 0.647393, -0.647393, 0.428738, 115.913025, 211.464128)" fill="none" stroke-linejoin="miter" d="M 5.500332 5.499421 L 26.92039 5.499407 " stroke="#000000" stroke-width="11" stroke-opacity="1" stroke-miterlimit="4"/><path stroke-linecap="round" transform="matrix(0.408096, -0.660599, 0.660599, 0.408096, 108.415661, 192.250535)" fill="none" stroke-linejoin="miter" d="M 5.497992 5.500461 L 38.42766 5.499009 " stroke="#000000" stroke-width="11" stroke-opacity="1" stroke-miterlimit="4"/><path stroke-linecap="round" transform="matrix(0.498393, -0.595431, 0.595431, 0.498393, 214.662091, 180.96163)" fill="none" stroke-linejoin="miter" d="M 5.499548 5.503007 L 109.660828 5.497833 " stroke="#000000" stroke-width="11" stroke-opacity="1" stroke-miterlimit="4"/><path stroke-linecap="round" transform="matrix(0.758786, -0.164854, 0.164854, 0.758786, 142.830509, 237.734749)" fill="none" stroke-linejoin="miter" d="M 5.499903 5.498167 L 22.045359 5.49952 " stroke="#000000" stroke-width="11" stroke-opacity="1" stroke-miterlimit="4"/><path stroke-linecap="round" transform="matrix(0.706572, 0.322009, -0.322009, 0.706572, 188.063649, 235.80561)" fill="none" stroke-linejoin="miter" d="M 5.500112 5.497305 L 24.336211 5.498728 " stroke="#000000" stroke-width="11" stroke-opacity="1" stroke-miterlimit="4"/><path stroke-linecap="round" transform="matrix(0.525375, 0.571765, -0.571765, 0.525375, 228.93598, 259.770101)" fill="none" stroke-linejoin="miter" d="M 5.499303 5.501367 L 20.702109 5.499423 " stroke="#000000" stroke-width="11" stroke-opacity="1" stroke-miterlimit="4"/><path stroke-linecap="round" transform="matrix(0.554844, -0.543215, 0.543215, 0.554844, 262.105886, 212.091783)" fill="none" stroke-linejoin="miter" d="M 5.498922 5.49986 L 79.542971 5.498325 " stroke="#000000" stroke-width="11" stroke-opacity="1" stroke-miterlimit="4"/><path stroke-linecap="round" transform="matrix(0.0615032, 0.774048, -0.774048, 0.0615032, 290.715542, 164.120732)" fill="none" stroke-linejoin="miter" d="M 5.498208 5.499429 L 117.121967 5.501926 " stroke="#000000" stroke-width="11" stroke-opacity="1" stroke-miterlimit="4"/><path stroke-linecap="round" transform="matrix(0.738597, -0.239599, 0.239599, 0.738597, 256.839568, 278.465372)" fill="none" stroke-linejoin="miter" d="M 5.498471 5.500962 L 29.721313 5.499727 " stroke="#000000" stroke-width="11" stroke-opacity="1" stroke-miterlimit="4"/><path stroke-linecap="round" transform="matrix(-0.426446, 0.648905, -0.648905, -0.426446, 323.709094, 234.543265)" fill="none" stroke-linejoin="miter" d="M 5.499946 5.50265 L 39.173776 5.501589 " stroke="#000000" stroke-width="11" stroke-opacity="1" stroke-miterlimit="4"/><path stroke-linecap="round" transform="matrix(0.0758659, 0.772773, -0.772773, 0.0758659, 325.57967, 171.828387)" fill="none" stroke-linejoin="miter" d="M 5.500174 5.500778 L 45.529797 5.497957 " stroke="#000000" stroke-width="11" stroke-opacity="1" stroke-miterlimit="4"/><path stroke-linecap="round" transform="matrix(0.230126, 0.741603, -0.741603, 0.230126, 225.45604, 263.937523)" fill="none" stroke-linejoin="miter" d="M 5.499651 5.497714 L 57.445403 5.498999 " stroke="#000000" stroke-width="11" stroke-opacity="1" stroke-miterlimit="4"/><path stroke-linecap="round" transform="matrix(0.769224, -0.105963, 0.105963, 0.769224, 214.825303, 307.648456)" fill="none" stroke-linejoin="miter" d="M 5.502203 5.500935 L 24.636714 5.501208 " stroke="#000000" stroke-width="11" stroke-opacity="1" stroke-miterlimit="4"/><g clip-path="url(#676bed2c19)"><g clip-path="url(#5fd15c6671)"><path fill="#8f33c4" d="M 64.082031 90.964844 L 86.535156 90.964844 L 86.535156 113.421875 L 64.082031 113.421875 Z M 64.082031 90.964844 " fill-opacity="1" fill-rule="nonzero"/></g></g><g clip-path="url(#ff1eebcba7)"><g clip-path="url(#4b5ceb1bc9)"><path stroke-linecap="butt" transform="matrix(0.776488, 0, 0, 0.776488, 64.080221, 90.966095)" fill="none" stroke-linejoin="miter" d="M 14.455429 -0.0016112 C 6.471765 -0.0016112 0.00233121 6.472854 0.00233121 14.451487 C 0.00233121 22.435151 6.471765 28.904585 14.455429 28.904585 C 22.434063 28.904585 28.908527 22.435151 28.908527 14.451487 C 28.908527 6.472854 22.434063 -0.0016112 14.455429 -0.0016112 Z M 14.455429 -0.0016112 " stroke="#000000" stroke-width="3.86355" stroke-opacity="1" stroke-miterlimit="4"/></g></g><g clip-path="url(#dc2b56438f)"><g clip-path="url(#3d1f2de296)"><path fill="#8f33c4" d="M 37.5 126.578125 L 59.804688 126.578125 L 59.804688 148.882812 L 37.5 148.882812 Z M 37.5 126.578125 " fill-opacity="1" fill-rule="nonzero"/></g></g><g clip-path="url(#558dcc3227)"><g clip-path="url(#68f0f60faf)"><path stroke-linecap="butt" transform="matrix(0.776488, 0, 0, 0.776488, 37.500002, 126.576788)" fill="none" stroke-linejoin="miter" d="M 14.357513 0.00172123 C 6.429186 0.00172123 -0.00000262399 6.43091 -0.00000262399 14.359237 C -0.00000262399 22.287563 6.429186 28.716752 14.357513 28.716752 C 22.29087 28.716752 28.720059 22.287563 28.720059 14.359237 C 28.720059 6.43091 22.29087 0.00172123 14.357513 0.00172123 Z M 14.357513 0.00172123 " stroke="#000000" stroke-width="3.86355" stroke-opacity="1" stroke-miterlimit="4"/></g></g><g clip-path="url(#1613ab932b)"><g clip-path="url(#9c610cbe2a)"><path fill="#8f33c4" d="M 54.277344 186.808594 L 77.324219 186.808594 L 77.324219 209.855469 L 54.277344 209.855469 Z M 54.277344 186.808594 " fill-opacity="1" fill-rule="nonzero"/></g></g><g clip-path="url(#03036306ce)"><g clip-path="url(#831f4fd350)"><path stroke-linecap="butt" transform="matrix(0.776488, 0, 0, 0.776488, 54.277705, 186.80952)" fill="none" stroke-linejoin="miter" d="M 14.834963 -0.00119253 C 6.640012 -0.00119253 -0.000465153 6.644315 -0.000465153 14.834236 C -0.000465153 23.029188 6.640012 29.669665 14.834963 29.669665 C 23.029915 29.669665 29.670392 23.029188 29.670392 14.834236 C 29.670392 6.644315 23.029915 -0.00119253 14.834963 -0.00119253 Z M 14.834963 -0.00119253 " stroke="#000000" stroke-width="3.86355" stroke-opacity="1" stroke-miterlimit="4"/></g></g><g clip-path="url(#5234e3cc7a)"><g clip-path="url(#9fb78cd2de)"><path fill="#8f33c4" d="M 140.433594 57.546875 L 162.769531 57.546875 L 162.769531 79.882812 L 140.433594 79.882812 Z M 140.433594 57.546875 " fill-opacity="1" fill-rule="nonzero"/><path stroke-linecap="butt" transform="matrix(0.776488, 0, 0, 0.776488, 140.432194, 57.545151)" fill="none" stroke-linejoin="miter" d="M 14.384471 0.00221971 C 6.441053 0.00221971 0.00180308 6.441469 0.00180308 14.384888 C 0.00180308 22.328306 6.441053 28.767555 14.384471 28.767555 C 22.327889 28.767555 28.767139 22.328306 28.767139 14.384888 C 28.767139 6.441469 22.327889 0.00221971 14.384471 0.00221971 Z M 14.384471 0.00221971 " stroke="#000000" stroke-width="3.86355" stroke-opacity="1" stroke-miterlimit="4"/></g></g><g clip-path="url(#bc6a8c2b8a)"><g clip-path="url(#bbd5f246ca)"><path fill="#8f33c4" d="M 124.6875 144.851562 L 146.980469 144.851562 L 146.980469 167.140625 L 124.6875 167.140625 Z M 124.6875 144.851562 " fill-opacity="1" fill-rule="nonzero"/></g></g><g clip-path="url(#f08b472681)"><g clip-path="url(#0a752197c4)"><path stroke-linecap="butt" transform="matrix(0.776488, 0, 0, 0.776488, 124.689138, 144.849835)" fill="none" stroke-linejoin="miter" d="M 14.350375 0.00222439 C 6.427079 0.00222439 -0.00210939 6.426382 -0.00210939 14.349679 C -0.00210939 22.278005 6.427079 28.702163 14.350375 28.702163 C 22.278702 28.702163 28.70286 22.278005 28.70286 14.349679 C 28.70286 6.426382 22.278702 0.00222439 14.350375 0.00222439 Z M 14.350375 0.00222439 " stroke="#000000" stroke-width="3.86355" stroke-opacity="1" stroke-miterlimit="4"/></g></g><g clip-path="url(#2998fc4012)"><g clip-path="url(#c7fc05400d)"><path fill="#8f33c4" d="M 94.550781 192.785156 L 117.488281 192.785156 L 117.488281 215.722656 L 94.550781 215.722656 Z M 94.550781 192.785156 " fill-opacity="1" fill-rule="nonzero"/></g></g><g clip-path="url(#262268f3cd)"><g clip-path="url(#df26ec7f00)"><path stroke-linecap="butt" transform="matrix(0.776488, 0, 0, 0.776488, 94.552652, 192.786199)" fill="none" stroke-linejoin="miter" d="M 14.767621 -0.00134231 C 6.612914 -0.00134231 -0.00240911 6.60895 -0.00240911 14.763657 C -0.00240911 22.918364 6.612914 29.533687 14.767621 29.533687 C 22.922327 29.533687 29.53262 22.918364 29.53262 14.763657 C 29.53262 6.60895 22.922327 -0.00134231 14.767621 -0.00134231 Z M 14.767621 -0.00134231 " stroke="#000000" stroke-width="3.86355" stroke-opacity="1" stroke-miterlimit="4"/></g></g><g clip-path="url(#ca0790ac18)"><g clip-path="url(#f9198d8452)"><path fill="#eb008b" d="M 315.09375 211.628906 L 337.5 211.628906 L 337.5 234.035156 L 315.09375 234.035156 Z M 315.09375 211.628906 " fill-opacity="1" fill-rule="nonzero"/></g></g><g clip-path="url(#dc1274e941)"><g clip-path="url(#af546bc313)"><path stroke-linecap="butt" transform="matrix(0.776488, 0, 0, 0.776488, 315.092151, 211.628657)" fill="none" stroke-linejoin="miter" d="M 14.419943 0.000320606 C 6.456401 0.000320606 0.00205926 6.454663 0.00205926 14.423235 C 0.00205926 22.386776 6.456401 28.846149 14.419943 28.846149 C 22.388515 28.846149 28.842857 22.386776 28.842857 14.423235 C 28.842857 6.454663 22.388515 0.000320606 14.419943 0.000320606 Z M 14.419943 0.000320606 " stroke="#000000" stroke-width="3.86355" stroke-opacity="1" stroke-miterlimit="4"/></g></g><g clip-path="url(#f859b64ab6)"><g clip-path="url(#50e9c68914)"><path fill="#eb008b" d="M 309.097656 150.011719 L 331.382812 150.011719 L 331.382812 172.296875 L 309.097656 172.296875 Z M 309.097656 150.011719 " fill-opacity="1" fill-rule="nonzero"/></g></g><g clip-path="url(#e5cb45c018)"><g clip-path="url(#95bc127ea0)"><path stroke-linecap="butt" transform="matrix(0.776488, 0, 0, 0.776488, 309.098744, 150.013365)" fill="none" stroke-linejoin="miter" d="M 14.346054 -0.00212057 C 6.422758 -0.00212057 -0.00140112 6.422038 -0.00140112 14.345335 C -0.00140112 22.263601 6.422758 28.68776 14.346054 28.68776 C 22.26432 28.68776 28.688479 22.263601 28.688479 14.345335 C 28.688479 6.422038 22.26432 -0.00212057 14.346054 -0.00212057 Z M 14.346054 -0.00212057 " stroke="#000000" stroke-width="3.86355" stroke-opacity="1" stroke-miterlimit="4"/></g></g><g clip-path="url(#940199a248)"><g clip-path="url(#126a5dd74a)"><path fill="#eb008b" d="M 273.960938 141.316406 L 297.132812 141.316406 L 297.132812 164.488281 L 273.960938 164.488281 Z M 273.960938 141.316406 " fill-opacity="1" fill-rule="nonzero"/></g></g><g clip-path="url(#2610eb9535)"><g clip-path="url(#13ecf1137a)"><path stroke-linecap="butt" transform="matrix(0.776488, 0, 0, 0.776488, 273.959283, 141.315812)" fill="none" stroke-linejoin="miter" d="M 14.913018 0.000765923 C 6.677821 0.000765923 0.00213035 6.676457 0.00213035 14.911654 C 0.00213035 23.151881 6.677821 29.827572 14.913018 29.827572 C 23.153245 29.827572 29.828936 23.151881 29.828936 14.911654 C 29.828936 6.676457 23.153245 0.000765923 14.913018 0.000765923 Z M 14.913018 0.000765923 " stroke="#000000" stroke-width="3.86355" stroke-opacity="1" stroke-miterlimit="4"/></g></g><g clip-path="url(#2cb1b78bf4)"><g clip-path="url(#dd04285471)"><path fill="#eb008b" d="M 283.625 259.335938 L 306.171875 259.335938 L 306.171875 281.882812 L 283.625 281.882812 Z M 283.625 259.335938 " fill-opacity="1" fill-rule="nonzero"/></g></g><g clip-path="url(#db92d5f1ad)"><g clip-path="url(#6b9a868e99)"><path stroke-linecap="butt" transform="matrix(0.776488, 0, 0, 0.776488, 283.624702, 259.335569)" fill="none" stroke-linejoin="miter" d="M 14.51385 0.000475126 C 6.500002 0.000475126 0.00038394 6.500093 0.00038394 14.513941 C 0.00038394 22.53282 6.500002 29.032438 14.51385 29.032438 C 22.532729 29.032438 29.032347 22.53282 29.032347 14.513941 C 29.032347 6.500093 22.532729 0.000475126 14.51385 0.000475126 Z M 14.51385 0.000475126 " stroke="#000000" stroke-width="3.86355" stroke-opacity="1" stroke-miterlimit="4"/></g></g><g clip-path="url(#6ab8a6888d)"><g clip-path="url(#b1e4e9623d)"><path fill="#eb008b" d="M 271.253906 95 L 294.042969 95 L 294.042969 117.789062 L 271.253906 117.789062 Z M 271.253906 95 " fill-opacity="1" fill-rule="nonzero"/></g></g><g clip-path="url(#e3cbf8c704)"><g clip-path="url(#88eddf28dc)"><path stroke-linecap="butt" transform="matrix(0.776488, 0, 0, 0.776488, 271.252808, 95.001555)" fill="none" stroke-linejoin="miter" d="M 14.670831 -0.00200307 C 6.566431 -0.00200307 0.00141401 6.568044 0.00141401 14.672444 C 0.00141401 22.776844 6.566431 29.341861 14.670831 29.341861 C 22.775231 29.341861 29.345278 22.776844 29.345278 14.672444 C 29.345278 6.568044 22.775231 -0.00200307 14.670831 -0.00200307 Z M 14.670831 -0.00200307 " stroke="#000000" stroke-width="3.86355" stroke-opacity="1" stroke-miterlimit="4"/></g></g><g clip-path="url(#a4ab6bf02a)"><g clip-path="url(#5f4a80d1ca)"><path fill="#eb008b" d="M 235.863281 274.628906 L 258.710938 274.628906 L 258.710938 297.476562 L 235.863281 297.476562 Z M 235.863281 274.628906 " fill-opacity="1" fill-rule="nonzero"/></g></g><g clip-path="url(#381fccc74d)"><g clip-path="url(#d7e8c74fa7)"><path stroke-linecap="butt" transform="matrix(0.776488, 0, 0, 0.776488, 235.863491, 274.629827)" fill="none" stroke-linejoin="miter" d="M 14.709392 -0.00118549 C 6.58487 -0.00118549 -0.000269626 6.583954 -0.000269626 14.708476 C -0.000269626 22.83803 6.58487 29.423169 14.709392 29.423169 C 22.833915 29.423169 29.424085 22.83803 29.424085 14.708476 C 29.424085 6.583954 22.833915 -0.00118549 14.709392 -0.00118549 Z M 14.709392 -0.00118549 " stroke="#000000" stroke-width="3.86355" stroke-opacity="1" stroke-miterlimit="4"/></g></g><g clip-path="url(#a610ef1e8f)"><g clip-path="url(#c796893844)"><path fill="#ba0e7f" d="M 199.300781 181.058594 L 222.003906 181.058594 L 222.003906 203.761719 L 199.300781 203.761719 Z M 199.300781 181.058594 " fill-opacity="1" fill-rule="nonzero"/></g></g><g clip-path="url(#a5721fcd21)"><g clip-path="url(#826d0a6584)"><path stroke-linecap="butt" transform="matrix(0.776488, 0, 0, 0.776488, 199.300465, 181.057824)" fill="none" stroke-linejoin="miter" d="M 14.619516 0.00099118 C 6.545301 0.00099118 0.000407266 6.545885 0.000407266 14.61507 C 0.000407266 22.689285 6.545301 29.234179 14.619516 29.234179 C 22.688701 29.234179 29.233595 22.689285 29.233595 14.61507 C 29.233595 6.545885 22.688701 0.00099118 14.619516 0.00099118 Z M 14.619516 0.00099118 " stroke="#000000" stroke-width="3.86355" stroke-opacity="1" stroke-miterlimit="4"/></g></g><g clip-path="url(#884a9e3305)"><g clip-path="url(#016ecc1ae3)"><path fill="#ba0e7f" d="M 167.476562 105.972656 L 190.3125 105.972656 L 190.3125 128.808594 L 167.476562 128.808594 Z M 167.476562 105.972656 " fill-opacity="1" fill-rule="nonzero"/></g></g><g clip-path="url(#3b0b711110)"><g clip-path="url(#7ff126ceaf)"><path stroke-linecap="butt" transform="matrix(0.776488, 0, 0, 0.776488, 167.477278, 105.973587)" fill="none" stroke-linejoin="miter" d="M 14.703709 -0.0011982 C 6.584218 -0.0011982 -0.000921846 6.583941 -0.000921846 14.703433 C -0.000921846 22.822925 6.584218 29.408064 14.703709 29.408064 C 22.823201 29.408064 29.408341 22.822925 29.408341 14.703433 C 29.408341 6.583941 22.823201 -0.0011982 14.703709 -0.0011982 Z M 14.703709 -0.0011982 " stroke="#000000" stroke-width="3.86355" stroke-opacity="1" stroke-miterlimit="4"/></g></g><g clip-path="url(#2c0f73ea23)"><g clip-path="url(#0b1c094d48)"><path fill="#ba0e7f" d="M 161.65625 167.140625 L 184.484375 167.140625 L 184.484375 189.972656 L 161.65625 189.972656 Z M 161.65625 167.140625 " fill-opacity="1" fill-rule="nonzero"/></g></g><g clip-path="url(#337dd1c1e3)"><g clip-path="url(#afa79ebc09)"><path stroke-linecap="butt" transform="matrix(0.776488, 0, 0, 0.776488, 161.65599, 167.140887)" fill="none" stroke-linejoin="miter" d="M 14.694905 -0.000337963 C 6.580444 -0.000337963 0.00033499 6.579771 0.00033499 14.694232 C 0.00033499 22.813724 6.580444 29.388802 14.694905 29.388802 C 22.809366 29.388802 29.389475 22.813724 29.389475 14.694232 C 29.389475 6.579771 22.809366 -0.000337963 14.694905 -0.000337963 Z M 14.694905 -0.000337963 " stroke="#000000" stroke-width="3.86355" stroke-opacity="1" stroke-miterlimit="4"/></g></g><g clip-path="url(#8d28c0b8e5)"><g clip-path="url(#242e5398b6)"><path fill="#ba0e7f" d="M 121.136719 232.90625 L 143.996094 232.90625 L 143.996094 255.765625 L 121.136719 255.765625 Z M 121.136719 232.90625 " fill-opacity="1" fill-rule="nonzero"/></g></g><g clip-path="url(#88d522c2eb)"><g clip-path="url(#c1e880440e)"><path stroke-linecap="butt" transform="matrix(0.776488, 0, 0, 0.776488, 121.135545, 232.906641)" fill="none" stroke-linejoin="miter" d="M 14.721235 -0.00050317 C 6.591682 -0.00050317 0.0015122 6.589666 0.0015122 14.719219 C 0.0015122 22.848772 6.591682 29.438942 14.721235 29.438942 C 22.845757 29.438942 29.435926 22.848772 29.435926 14.719219 C 29.435926 6.589666 22.845757 -0.00050317 14.721235 -0.00050317 Z M 14.721235 -0.00050317 " stroke="#000000" stroke-width="3.86355" stroke-opacity="1" stroke-miterlimit="4"/></g></g><g clip-path="url(#c375e0ae91)"><g clip-path="url(#f4f4fb3b49)"><path fill="#ba0e7f" d="M 164.378906 223.460938 L 187.324219 223.460938 L 187.324219 246.402344 L 164.378906 246.402344 Z M 164.378906 223.460938 " fill-opacity="1" fill-rule="nonzero"/></g></g><g clip-path="url(#e80fe7be3a)"><g clip-path="url(#babf54ba86)"><path stroke-linecap="butt" transform="matrix(0.776488, 0, 0, 0.776488, 164.379939, 223.460597)" fill="none" stroke-linejoin="miter" d="M 14.77373 0.000439123 C 6.613993 0.000439123 -0.00133042 6.615762 -0.00133042 14.7755 C -0.00133042 22.930206 6.613993 29.54553 14.77373 29.54553 C 22.933467 29.54553 29.548791 22.930206 29.548791 14.7755 C 29.548791 6.615762 22.933467 0.000439123 14.77373 0.000439123 Z M 14.77373 0.000439123 " stroke="#000000" stroke-width="3.86355" stroke-opacity="1" stroke-miterlimit="4"/></g></g><g clip-path="url(#da0e4e4e61)"><g clip-path="url(#151193536a)"><path fill="#ba0e7f" d="M 245.332031 211.683594 L 268.382812 211.683594 L 268.382812 234.734375 L 245.332031 234.734375 Z M 245.332031 211.683594 " fill-opacity="1" fill-rule="nonzero"/></g></g><g clip-path="url(#86b0e5f470)"><g clip-path="url(#601f13db27)"><path stroke-linecap="butt" transform="matrix(0.776488, 0, 0, 0.776488, 245.333645, 211.68362)" fill="none" stroke-linejoin="miter" d="M 14.838381 -0.000033419 C 6.643429 -0.000033419 -0.00207851 6.640443 -0.00207851 14.835395 C -0.00207851 23.030347 6.643429 29.670824 14.838381 29.670824 C 23.028302 29.670824 29.673809 23.030347 29.673809 14.835395 C 29.673809 6.640443 23.028302 -0.000033419 14.838381 -0.000033419 Z M 14.838381 -0.000033419 " stroke="#000000" stroke-width="3.86355" stroke-opacity="1" stroke-miterlimit="4"/></g></g><g clip-path="url(#bd6a07a0c9)"><g clip-path="url(#749d959fd3)"><path fill="#ba0e7f" d="M 206.332031 242.503906 L 229.546875 242.503906 L 229.546875 265.71875 L 206.332031 265.71875 Z M 206.332031 242.503906 " fill-opacity="1" fill-rule="nonzero"/></g></g><g clip-path="url(#1c426f9872)"><g clip-path="url(#82c3ab27e8)"><path stroke-linecap="butt" transform="matrix(0.776488, 0, 0, 0.776488, 206.33041, 242.505116)" fill="none" stroke-linejoin="miter" d="M 14.94316 -0.00155807 C 6.692871 -0.00155807 0.00208773 6.689225 0.00208773 14.944545 C 0.00208773 23.199865 6.692871 29.890648 14.94316 29.890648 C 23.19848 29.890648 29.889263 23.199865 29.889263 14.944545 C 29.889263 6.689225 23.19848 -0.00155807 14.94316 -0.00155807 Z M 14.94316 -0.00155807 " stroke="#000000" stroke-width="3.86355" stroke-opacity="1" stroke-miterlimit="4"/></g></g><path stroke-linecap="round" transform="matrix(-0.608113, 0.482838, -0.482838, -0.608113, 250.482761, 233.722602)" fill="none" stroke-linejoin="miter" d="M 5.499393 5.496948 L 28.7126 5.498906 " stroke="#000000" stroke-width="11" stroke-opacity="1" stroke-miterlimit="4"/><path stroke-linecap="round" transform="matrix(0.491773, -0.60091, 0.60091, 0.491773, 179.810383, 223.346001)" fill="none" stroke-linejoin="miter" d="M 5.499795 5.500455 L 35.872076 5.502511 " stroke="#000000" stroke-width="11" stroke-opacity="1" stroke-miterlimit="4"/><path stroke-linecap="round" transform="matrix(-0.0735901, 0.772993, -0.772993, -0.0735901, 182.062082, 129.162647)" fill="none" stroke-linejoin="miter" d="M 5.497968 5.499709 L 44.222472 5.502066 " stroke="#000000" stroke-width="11" stroke-opacity="1" stroke-miterlimit="4"/><path stroke-linecap="round" transform="matrix(0.379761, 0.677285, -0.677285, 0.379761, 160.785551, 76.372377)" fill="none" stroke-linejoin="miter" d="M 5.501076 5.501686 L 37.281261 5.499576 " stroke="#000000" stroke-width="11" stroke-opacity="1" stroke-miterlimit="4"/><path stroke-linecap="round" transform="matrix(0.57815, -0.51834, 0.51834, 0.57815, 141.280982, 145.371437)" fill="none" stroke-linejoin="miter" d="M 5.501802 5.49958 L 39.919165 5.499644 " stroke="#000000" stroke-width="11" stroke-opacity="1" stroke-miterlimit="4"/><path stroke-linecap="round" transform="matrix(0.664106, 0.402364, -0.402364, 0.664106, 147.580776, 158.121318)" fill="none" stroke-linejoin="miter" d="M 5.50001 5.50207 L 21.51024 5.50127 " stroke="#000000" stroke-width="11" stroke-opacity="1" stroke-miterlimit="4"/><path stroke-linecap="round" transform="matrix(0.728563, 0.268568, -0.268568, 0.728563, 185.26152, 178.498582)" fill="none" stroke-linejoin="miter" d="M 5.502485 5.501237 L 16.755137 5.4977 " stroke="#000000" stroke-width="11" stroke-opacity="1" stroke-miterlimit="4"/><path stroke-linecap="round" transform="matrix(0.646109, 0.43067, -0.43067, 0.646109, 222.466339, 195.153035)" fill="none" stroke-linejoin="miter" d="M 5.50038 5.498043 L 36.553179 5.500359 " stroke="#000000" stroke-width="11" stroke-opacity="1" stroke-miterlimit="4"/><path stroke-linecap="round" transform="matrix(0.485996, 0.605592, -0.605592, 0.485996, 267.403552, 229.525648)" fill="none" stroke-linejoin="miter" d="M 5.502132 5.501188 L 43.405451 5.499529 " stroke="#000000" stroke-width="11" stroke-opacity="1" stroke-miterlimit="4"/><path stroke-linecap="round" transform="matrix(0.75541, 0.179694, -0.179694, 0.75541, 297.808636, 151.430616)" fill="none" stroke-linejoin="miter" d="M 5.502027 5.500224 L 11.149077 5.501393 " stroke="#000000" stroke-width="11" stroke-opacity="1" stroke-miterlimit="4"/><path stroke-linecap="round" transform="matrix(0.048303, 0.774984, -0.774984, 0.048303, 287.616137, 117.505305)" fill="none" stroke-linejoin="miter" d="M 5.502414 5.497953 L 24.913087 5.498074 " stroke="#000000" stroke-width="11" stroke-opacity="1" stroke-miterlimit="4"/></svg>